# Blender 4.1.0
# www.blender.org
mtllib BanquetaTrunca.mtl
o Cube.004
v 1.000000 0.200000 -1.000000
v 1.000000 -0.000000 -1.000000
v -1.000000 0.200000 -1.000000
v -1.000000 -0.000000 -1.000000
v -1.000000 0.200000 1.000000
v -1.000000 -0.000000 1.000000
v -1.000000 -0.000000 0.900000
v -1.000000 0.200000 0.900000
v 0.900000 -0.000000 -1.000000
v 0.900000 0.200000 -1.000000
v -1.000000 0.200000 -0.905000
v 1.000000 -0.000000 -0.905000
v -1.000000 -0.000000 -0.905000
v 1.000000 0.200000 -0.905000
v 0.900000 0.200000 -0.905000
v 0.900000 -0.000000 -0.905000
v -0.905000 -0.000000 -1.000000
v -0.905000 0.200000 1.000000
v -0.905000 -0.000000 0.900000
v -0.905000 -0.000000 1.000000
v -0.905000 0.200000 -1.000000
v -0.905000 0.200000 0.900000
v -0.905000 -0.000235 -0.905000
v -0.905000 0.200000 -0.905000
v -0.672085 0.200000 0.609613
v -0.387048 0.200000 0.255487
v -0.076403 0.200000 -0.076403
v 0.255487 0.200000 -0.387048
v 0.609613 0.200000 -0.672085
v 0.609613 -0.000000 -0.672085
v 0.255487 -0.000000 -0.387048
v -0.076403 -0.000000 -0.076403
v -0.387048 -0.000000 0.255487
v -0.672085 -0.000000 0.609613
v -0.684747 0.200000 0.527277
v -0.684747 -0.000470 0.527277
v -0.415205 0.200000 0.192401
v -0.415205 -0.000470 0.192401
v -0.121447 0.200000 -0.121447
v -0.121447 -0.000470 -0.121447
v 0.192401 0.200000 -0.415205
v 0.192401 -0.000470 -0.415205
v 0.527277 0.200000 -0.684747
v 0.527277 -0.000470 -0.684747
vn -0.0000 1.0000 -0.0000
vn -1.0000 -0.0000 -0.0000
vn -0.0000 -0.0000 1.0000
vn -0.0000 -0.0000 -1.0000
vn 1.0000 -0.0000 -0.0000
vn 0.0001 -1.0000 -0.0025
vn -0.0000 -1.0000 -0.0000
vn 0.8588 -0.0000 0.5124
vn 0.7790 -0.0000 0.6270
vn 0.7301 -0.0000 0.6834
vn 0.6834 -0.0000 0.7301
vn 0.6270 -0.0000 0.7790
vn 0.5124 -0.0000 0.8588
vn -0.0002 -1.0000 -0.0001
vn 0.0050 -1.0000 0.0054
vn 0.0060 -1.0000 0.0048
vn 0.0048 -1.0000 0.0060
vn 0.0054 -1.0000 0.0050
vn -0.0025 -1.0000 -0.0025
vn -0.0025 -1.0000 0.0001
vn 0.0001 -1.0000 -0.0019
vn -0.0001 -1.0000 -0.0002
vn -0.0019 -1.0000 0.0001
vt 0.124238 0.973948
vt 0.124238 0.929556
vt 0.170210 0.864605
vt 0.170210 0.905508
vt 0.030779 0.973948
vt 0.030779 0.929556
vt 0.124238 0.086086
vt 0.030778 0.039356
vt 0.030778 0.086086
vt 0.211113 0.087448
vt 0.211113 0.864605
vt 0.211113 0.905508
vt 0.988270 0.905508
vt 0.124238 0.542355
vt 0.124238 0.416744
vt 0.124238 0.563404
vt 0.124238 0.039356
vt 0.988270 0.864605
vt 0.170210 0.087448
vt 0.030778 0.221783
vt 0.124238 0.820715
vt 0.030779 0.820715
vt 0.124238 0.687518
vt 0.030779 0.687518
vt 0.030778 0.542355
vt 0.124238 0.387264
vt 0.030778 0.387264
vt 0.124238 0.221783
vt 0.548478 0.527240
vt 0.421998 0.392110
vt 0.030558 0.416744
vt 0.124238 0.826632
vt 0.030559 0.826632
vt 0.030559 0.700676
vt 0.124238 0.260258
vt 0.030558 0.260258
vt 0.124238 0.700676
vt 0.030559 0.563404
vt 0.683608 0.653719
vt 0.827791 0.769773
vt 0.305945 0.247927
s 0
usemtl Banqueta
f 8/1/1 18/2/1 22/2/1
f 11/3/2 4/4/2 13/3/2
f 18/2/3 6/5/3 20/6/3
f 10/7/4 2/8/4 9/9/4
f 5/1/2 7/5/2 6/5/2
f 11/3/1 22/10/1 24/11/1
f 21/12/4 9/13/4 17/12/4
f 27/14/1 41/15/1 39/16/1
f 1/17/5 12/8/5 2/8/5
f 17/12/6 16/18/6 23/11/6
f 10/7/1 14/17/1 1/17/1
f 3/4/1 24/11/1 21/12/1
f 2/8/7 16/9/7 9/9/7
f 8/19/2 13/3/2 7/19/2
f 21/12/1 15/18/1 10/13/1
f 17/12/7 13/3/7 4/4/7
f 19/6/7 6/5/7 7/5/7
f 3/4/4 17/12/4 4/4/4
f 13/3/7 19/10/7 7/19/7
f 30/20/7 16/9/7 12/8/7
f 20/6/8 25/21/8 18/2/8
f 34/22/9 26/23/9 25/21/9
f 33/24/10 27/14/10 26/23/10
f 32/25/11 28/26/11 27/14/11
f 31/27/12 29/28/12 28/26/12
f 30/20/13 14/17/13 29/28/13
f 23/11/14 40/29/14 38/30/14
f 32/25/15 42/31/15 31/27/15
f 26/23/1 35/32/1 25/21/1
f 33/24/16 36/33/16 38/34/16
f 28/26/1 43/35/1 41/15/1
f 31/27/17 44/36/17 30/20/17
f 27/14/1 37/37/1 26/23/1
f 25/21/1 22/2/1 18/2/1
f 32/25/18 38/34/18 40/38/18
f 29/28/1 15/7/1 43/35/1
f 34/22/16 19/6/16 36/33/16
f 24/11/1 39/29/1 41/39/1
f 8/1/1 5/1/1 18/2/1
f 11/3/2 3/4/2 4/4/2
f 18/2/3 5/1/3 6/5/3
f 10/7/4 1/17/4 2/8/4
f 5/1/2 8/1/2 7/5/2
f 11/3/1 8/19/1 22/10/1
f 21/12/4 10/13/4 9/13/4
f 27/14/1 28/26/1 41/15/1
f 1/17/5 14/17/5 12/8/5
f 17/12/7 9/13/7 16/18/7
f 10/7/1 15/7/1 14/17/1
f 3/4/1 11/3/1 24/11/1
f 2/8/7 12/8/7 16/9/7
f 8/19/2 11/3/2 13/3/2
f 21/12/1 24/11/1 15/18/1
f 17/12/19 23/11/19 13/3/19
f 19/6/7 20/6/7 6/5/7
f 3/4/4 21/12/4 17/12/4
f 13/3/20 23/11/20 19/10/20
f 30/20/17 44/36/17 16/9/17
f 20/6/8 34/22/8 25/21/8
f 34/22/9 33/24/9 26/23/9
f 33/24/10 32/25/10 27/14/10
f 32/25/11 31/27/11 28/26/11
f 31/27/12 30/20/12 29/28/12
f 30/20/13 12/8/13 14/17/13
f 23/11/21 16/18/21 44/40/21
f 23/11/22 44/40/22 42/39/22
f 36/41/23 19/10/23 23/11/23
f 38/30/14 36/41/14 23/11/14
f 23/11/22 42/39/22 40/29/22
f 32/25/15 40/38/15 42/31/15
f 26/23/1 37/37/1 35/32/1
f 33/24/16 34/22/16 36/33/16
f 28/26/1 29/28/1 43/35/1
f 31/27/17 42/31/17 44/36/17
f 27/14/1 39/16/1 37/37/1
f 25/21/1 35/32/1 22/2/1
f 32/25/18 33/24/18 38/34/18
f 29/28/1 14/17/1 15/7/1
f 34/22/7 20/6/7 19/6/7
f 24/11/1 22/10/1 35/41/1
f 24/11/1 35/41/1 37/30/1
f 43/40/1 15/18/1 24/11/1
f 41/39/1 43/40/1 24/11/1
f 24/11/1 37/30/1 39/29/1
