# Blender 4.0.2
# www.blender.org
mtllib BanketaLuz.mtl
o Cube
v 1.000000 0.200000 -1.000000
v 1.000000 -0.000000 -1.000000
v 1.000000 0.200000 1.000000
v 1.000000 0.000000 1.000000
v -1.000000 0.200000 -1.000000
v -1.000000 -0.000000 -1.000000
v -1.000000 0.200000 1.000000
v -1.000000 0.000000 1.000000
v -1.000000 0.000000 0.900000
v 1.000000 0.200000 0.900000
v -1.000000 0.200000 0.900000
v 1.000000 0.000000 0.900000
vn -0.0000 1.0000 -0.0000
vn -0.0000 -0.0000 1.0000
vn -1.0000 -0.0000 -0.0000
vn -0.0000 -1.0000 -0.0000
vn 1.0000 -0.0000 -0.0000
vn -0.0000 -0.0000 -1.0000
vt 0.048913 0.998168
vt 0.002691 0.001682
vt 0.051098 0.001419
vt 0.025247 0.021051
vt 0.025247 0.966902
vt 0.202548 0.132396
vt 0.202548 0.874276
vt 0.072539 0.021051
vt 0.072539 0.966902
vt 0.983475 0.874276
vt 0.983475 0.132396
vt 0.997734 0.999058
vt 1.000198 0.004205
vt 0.002307 0.999252
s 0
usemtl Banqueta
f 11/1/1 3/2/1 10/3/1
f 3/4/2 8/5/2 4/4/2
f 11/6/3 6/7/3 9/6/3
f 12/8/4 8/5/4 9/9/4
f 10/8/5 4/4/5 12/8/5
f 5/7/6 2/10/6 6/7/6
f 1/10/5 12/11/5 2/10/5
f 2/10/4 9/6/4 6/7/4
f 7/5/3 9/9/3 8/5/3
f 5/12/1 10/3/1 1/13/1
f 11/1/1 7/14/1 3/2/1
f 3/4/2 7/5/2 8/5/2
f 11/6/3 5/7/3 6/7/3
f 12/8/4 4/4/4 8/5/4
f 10/8/5 3/4/5 4/4/5
f 5/7/6 1/10/6 2/10/6
f 1/10/5 10/11/5 12/11/5
f 2/10/4 12/11/4 9/6/4
f 7/5/3 11/9/3 9/9/3
f 5/12/1 11/1/1 10/3/1
