# Blender 4.1.0
# www.blender.org
mtllib BanquetaEsquina.mtl
o Cube.001
v 1.000000 0.200000 -1.000000
v 1.000000 -0.000000 -1.000000
v 1.000000 0.200000 1.000000
v 1.000000 -0.000000 1.000000
v -1.000000 0.200000 -1.000000
v -1.000000 -0.000000 -1.000000
v 1.000000 0.200000 0.900000
v 1.000000 -0.000000 0.900000
v -0.900000 -0.000000 -1.000000
v -0.900000 0.200000 -1.000000
v 0.024112 -0.000000 0.900166
v 0.050000 0.200000 -1.000000
v 0.024112 0.200000 0.900166
v 0.050000 -0.000000 -1.000000
v -0.900166 0.200000 -0.024112
v 1.000000 -0.000000 -0.050000
v -0.900166 -0.000000 -0.024112
v 1.000000 0.200000 -0.050000
v 0.024112 0.200000 -0.024112
v 0.024112 -0.000000 -0.024112
v -0.900166 0.200000 -0.002037
v 0.002037 0.200000 0.900166
v -0.869278 0.200000 0.232581
v -0.779325 0.200000 0.449746
v -0.636231 0.200000 0.636231
v -0.449746 0.200000 0.779325
v -0.232581 0.200000 0.869278
v 0.002037 -0.000000 0.900166
v -0.900166 -0.000000 -0.002037
v -0.232581 -0.000000 0.869278
v -0.449746 -0.000000 0.779325
v -0.636231 -0.000000 0.636231
v -0.779325 -0.000000 0.449746
v -0.869278 -0.000000 0.232581
v 0.050000 0.200000 0.900000
v 0.050000 0.200000 1.000000
v 0.050000 0.200000 -0.050000
v 0.050000 -0.000000 -0.050000
v 0.050000 -0.000000 0.900000
v 0.050000 -0.000000 1.000000
v -0.900000 -0.000000 -0.050000
v -1.000000 -0.000000 -0.050000
v -0.900000 0.200000 -0.050000
v -1.000000 0.200000 -0.050000
v -0.259876 -0.000000 0.965974
v -0.001426 -0.000000 1.000000
v -0.001426 0.200000 1.000000
v -0.259876 0.200000 0.965974
v -0.500713 -0.000000 0.866216
v -0.500713 0.200000 0.866216
v -0.707524 -0.000000 0.707524
v -0.707524 0.200000 0.707524
v -0.866216 -0.000000 0.500713
v -0.866216 0.200000 0.500713
v -0.965974 -0.000000 0.259876
v -0.965974 0.200000 0.259876
v -1.000000 -0.000000 0.001426
v -1.000000 0.200000 0.001426
vn -1.0000 -0.0000 -0.0000
vn -0.0000 -1.0000 -0.0000
vn 1.0000 -0.0000 -0.0000
vn -0.0000 -0.0000 -1.0000
vn -0.0000 1.0000 -0.0000
vn -0.0000 -0.0000 1.0000
vn -0.1305 -0.0000 0.9914
vn -0.3827 -0.0000 0.9239
vn -0.6088 -0.0000 0.7934
vn -0.7934 -0.0000 0.6088
vn -0.9239 -0.0000 0.3827
vn -0.9914 -0.0000 0.1305
vt 0.128999 0.986863
vt 0.031715 0.986863
vt 0.031715 0.986863
vt 0.031715 0.014025
vt 0.031715 0.476123
vt 0.128999 0.014025
vt 0.582543 0.889131
vt 0.984587 0.889131
vt 0.984587 0.487088
vt 0.984587 0.085045
vt 0.984587 0.487088
vt 0.582543 0.487088
vt 0.582543 0.085045
vt 0.128999 0.986863
vt 0.031715 0.938221
vt 0.193502 0.367499
vt 0.180430 0.466790
vt 0.571588 0.476132
vt 0.128999 0.476123
vt 0.180500 0.889131
vt 0.180500 0.487088
vt 0.128999 0.938221
vt 0.128999 0.938221
vt 0.562246 0.084975
vt 0.571588 0.084975
vt 0.128999 0.501138
vt 0.031715 0.626853
vt 0.031715 0.501138
vt 0.128999 0.626853
vt 0.031715 0.744000
vt 0.128999 0.744000
vt 0.031715 0.844597
vt 0.128999 0.844597
vt 0.031715 0.921788
vt 0.128999 0.921788
vt 0.031715 0.970312
vt 0.128999 0.970312
vt 0.128999 0.488715
vt 0.031715 0.488715
vt 0.031715 0.938302
vt 0.031715 0.938221
vt 0.180430 0.476132
vt 0.128999 0.938302
vt 0.031715 0.613576
vt 0.128999 0.613576
vt 0.128999 0.499453
vt 0.031715 0.719209
vt 0.128999 0.719209
vt 0.031715 0.809919
vt 0.128999 0.809919
vt 0.031715 0.879522
vt 0.031715 0.923277
vt 0.128999 0.879522
vt 0.128999 0.923277
vt 0.031715 0.499453
vt 0.180430 0.476132
vt 0.462954 0.098047
vt 0.371049 0.136115
vt 0.292129 0.196673
vt 0.231570 0.275594
s 0
usemtl Banqueta
f 58/1/1 42/2/1 57/2/1
f 44/1/1 6/3/1 42/2/1
f 8/4/2 40/5/2 39/5/2
f 7/6/3 4/4/3 8/4/3
f 12/7/4 2/8/4 14/7/4
f 18/9/3 8/10/3 16/11/3
f 38/12/2 8/10/2 39/13/2
f 5/14/4 9/15/4 6/3/4
f 34/16/2 29/17/2 20/18/2
f 35/19/5 3/6/5 7/6/5
f 3/6/6 40/5/6 4/4/6
f 37/12/5 7/10/5 18/9/5
f 10/20/4 14/7/4 9/20/4
f 14/7/2 41/21/2 9/20/2
f 12/7/5 18/9/5 1/8/5
f 9/15/2 42/2/2 6/3/2
f 10/20/5 37/12/5 12/7/5
f 10/22/5 44/1/5 43/23/5
f 14/7/2 16/11/2 38/12/2
f 1/8/3 16/11/3 2/8/3
f 22/24/5 13/25/5 19/18/5
f 47/26/7 45/27/7 46/28/7
f 48/29/8 49/30/8 45/27/8
f 50/31/9 51/32/9 49/30/9
f 52/33/10 53/34/10 51/32/10
f 54/35/11 55/36/11 53/34/11
f 56/37/12 57/2/12 55/36/12
f 36/19/6 46/28/6 40/5/6
f 13/38/5 36/19/5 35/19/5
f 19/18/5 35/13/5 37/12/5
f 20/18/2 39/13/2 11/25/2
f 11/39/2 39/5/2 40/5/2
f 20/18/2 41/21/2 38/12/2
f 17/40/2 42/2/2 41/41/2
f 19/18/5 43/21/5 15/42/5
f 15/43/5 43/23/5 44/1/5
f 30/44/2 46/28/2 45/27/2
f 27/45/5 47/26/5 22/46/5
f 31/47/2 45/27/2 49/30/2
f 26/48/5 48/29/5 27/45/5
f 32/49/2 49/30/2 51/32/2
f 25/50/5 50/31/5 26/48/5
f 32/49/2 53/34/2 33/51/2
f 25/50/5 54/35/5 52/33/5
f 33/51/2 55/36/2 34/52/2
f 24/53/5 56/37/5 54/35/5
f 34/52/2 57/2/2 29/40/2
f 23/54/5 58/1/5 56/37/5
f 11/39/2 46/28/2 28/55/2
f 13/38/5 47/26/5 36/19/5
f 15/43/5 58/1/5 21/43/5
f 17/40/2 57/2/2 42/2/2
f 58/1/1 44/1/1 42/2/1
f 44/1/1 5/14/1 6/3/1
f 8/4/2 4/4/2 40/5/2
f 7/6/3 3/6/3 4/4/3
f 12/7/4 1/8/4 2/8/4
f 18/9/3 7/10/3 8/10/3
f 38/12/2 16/11/2 8/10/2
f 5/14/4 10/22/4 9/15/4
f 29/17/2 17/56/2 20/18/2
f 20/18/2 11/25/2 28/24/2
f 28/24/2 30/57/2 20/18/2
f 30/57/2 31/58/2 20/18/2
f 31/58/2 32/59/2 20/18/2
f 32/59/2 33/60/2 20/18/2
f 33/60/2 34/16/2 20/18/2
f 35/19/5 36/19/5 3/6/5
f 3/6/6 36/19/6 40/5/6
f 37/12/5 35/13/5 7/10/5
f 10/20/4 12/7/4 14/7/4
f 14/7/2 38/12/2 41/21/2
f 12/7/5 37/12/5 18/9/5
f 9/15/2 41/41/2 42/2/2
f 10/20/5 43/21/5 37/12/5
f 10/22/5 5/14/5 44/1/5
f 14/7/2 2/8/2 16/11/2
f 1/8/3 18/9/3 16/11/3
f 19/18/5 15/42/5 21/17/5
f 21/17/5 23/16/5 19/18/5
f 23/16/5 24/60/5 19/18/5
f 24/60/5 25/59/5 19/18/5
f 25/59/5 26/58/5 19/18/5
f 26/58/5 27/57/5 19/18/5
f 27/57/5 22/24/5 19/18/5
f 47/26/7 48/29/7 45/27/7
f 48/29/8 50/31/8 49/30/8
f 50/31/9 52/33/9 51/32/9
f 52/33/10 54/35/10 53/34/10
f 54/35/11 56/37/11 55/36/11
f 56/37/12 58/1/12 57/2/12
f 36/19/6 47/26/6 46/28/6
f 19/18/5 13/25/5 35/13/5
f 20/18/2 38/12/2 39/13/2
f 20/18/2 17/56/2 41/21/2
f 19/18/5 37/12/5 43/21/5
f 30/44/2 28/55/2 46/28/2
f 27/45/5 48/29/5 47/26/5
f 31/47/2 30/44/2 45/27/2
f 26/48/5 50/31/5 48/29/5
f 32/49/2 31/47/2 49/30/2
f 25/50/5 52/33/5 50/31/5
f 32/49/2 51/32/2 53/34/2
f 25/50/5 24/53/5 54/35/5
f 33/51/2 53/34/2 55/36/2
f 24/53/5 23/54/5 56/37/5
f 34/52/2 55/36/2 57/2/2
f 23/54/5 21/43/5 58/1/5
f 11/39/2 40/5/2 46/28/2
f 13/38/5 22/46/5 47/26/5
f 15/43/5 44/1/5 58/1/5
f 17/40/2 29/40/2 57/2/2
