# Blender 4.1.0
# www.blender.org
mtllib Banqueta.mtl
o Cube
v 1.000000 0.200000 -1.000000
v 1.000000 -0.000000 -1.000000
v 1.000000 0.200000 1.000000
v 1.000000 -0.000000 1.000000
v -1.000000 0.200000 -1.000000
v -1.000000 -0.000000 -1.000000
v -1.000000 0.200000 1.000000
v -1.000000 -0.000000 1.000000
v -1.000000 -0.000000 0.900000
v 1.000000 0.200000 0.900000
v -1.000000 0.200000 0.900000
v 1.000000 -0.000000 0.900000
vn -0.0000 1.0000 -0.0000
vn -0.0000 -0.0000 1.0000
vn -1.0000 -0.0000 -0.0000
vn -0.0000 -1.0000 -0.0000
vn 1.0000 -0.0000 -0.0000
vn -0.0000 -0.0000 -1.0000
vt 0.072539 0.966902
vt 0.025247 0.021051
vt 0.072539 0.021051
vt 0.025247 0.966902
vt 0.202548 0.132396
vt 0.202548 0.874276
vt 0.983475 0.874276
vt 0.983475 0.132396
s 0
usemtl Banqueta
f 11/1/1 3/2/1 10/3/1
f 3/2/2 8/4/2 4/2/2
f 11/5/3 6/6/3 9/5/3
f 12/3/4 8/4/4 9/1/4
f 10/3/5 4/2/5 12/3/5
f 5/6/6 2/7/6 6/6/6
f 1/7/5 12/8/5 2/7/5
f 2/7/4 9/5/4 6/6/4
f 7/4/3 9/1/3 8/4/3
f 5/6/1 10/8/1 1/7/1
f 11/1/1 7/4/1 3/2/1
f 3/2/2 7/4/2 8/4/2
f 11/5/3 5/6/3 6/6/3
f 12/3/4 4/2/4 8/4/4
f 10/3/5 3/2/5 4/2/5
f 5/6/6 1/7/6 2/7/6
f 1/7/5 10/8/5 12/8/5
f 2/7/4 12/8/4 9/5/4
f 7/4/3 11/1/3 9/1/3
f 5/6/1 11/5/1 10/8/1
