# Blender 4.1.0
# www.blender.org
mtllib Estela.mtl
o Cube
v -2.852475 3.957520 1.447110
v -2.852475 84.957512 1.447110
v -2.852475 3.957520 -1.447110
v -2.852475 84.957512 -1.447110
v 2.852475 3.957520 1.447110
v 2.852475 84.957512 1.447110
v 2.852475 3.957520 -1.447110
v 2.852475 84.957512 -1.447110
v 4.235000 -0.000001 -1.792051
v -4.235000 -0.000001 -1.792050
v 4.235000 86.349983 -1.792051
v -4.235000 86.349983 -1.792050
v -4.235000 3.650000 1.821807
v 4.235000 3.650000 1.821807
v -4.235000 86.349983 1.821807
v 4.235000 86.349983 1.821807
v -4.235000 77.161095 1.821807
v -4.235000 67.972206 1.821807
v -4.235000 58.783318 1.821807
v -4.235000 49.594429 1.821807
v -4.235000 40.405540 1.821807
v -4.235000 31.216660 1.821807
v -4.235000 22.027771 1.821807
v -4.235000 12.838886 1.821807
v 4.235000 12.838887 1.821807
v 4.235000 22.027775 1.821807
v 4.235000 31.216660 1.821807
v 4.235000 40.405548 1.821807
v 4.235000 49.594437 1.821807
v 4.235000 58.783325 1.821807
v 4.235000 67.972214 1.821807
v 4.235000 77.161102 1.821807
v 4.235000 77.714981 -1.792051
v 4.235000 69.079987 -1.792051
v 4.235000 60.444988 -1.792051
v 4.235000 51.809990 -1.792051
v 4.235000 43.174992 -1.792051
v 4.235000 34.539993 -1.792051
v 4.235000 25.904995 -1.792051
v 4.235000 17.269997 -1.792051
v 4.235000 8.634997 -1.792051
v -4.235000 8.634997 -1.792050
v -4.235000 17.269997 -1.792050
v -4.235000 25.904995 -1.792050
v -4.235000 34.539993 -1.792050
v -4.235000 43.174992 -1.792050
v -4.235000 51.809990 -1.792050
v -4.235000 60.444988 -1.792050
v -4.235000 69.079987 -1.792050
v -4.235000 77.714981 -1.792050
v 4.235000 -0.000001 -1.407051
v -4.235000 -0.000001 -1.407050
v 4.235000 86.349983 -1.407051
v -4.235000 86.349983 -1.407050
v -4.235000 3.650000 1.436807
v 4.235000 3.650000 1.436807
v -4.235000 86.349983 1.436807
v 4.235000 86.349983 1.436807
v -4.235000 77.161095 1.436807
v -4.235000 67.972206 1.436807
v -4.235000 58.783318 1.436807
v -4.235000 49.594429 1.436807
v -4.235000 40.405540 1.436807
v -4.235000 31.216660 1.436807
v -4.235000 22.027771 1.436807
v -4.235000 12.838886 1.436806
v 4.235000 12.838887 1.436806
v 4.235000 22.027775 1.436807
v 4.235000 31.216660 1.436807
v 4.235000 40.405548 1.436807
v 4.235000 49.594437 1.436807
v 4.235000 58.783325 1.436807
v 4.235000 67.972214 1.436807
v 4.235000 77.161102 1.436807
v 4.235000 77.714981 -1.407051
v 4.235000 69.079987 -1.407051
v 4.235000 60.444988 -1.407051
v 4.235000 51.809990 -1.407051
v 4.235000 43.174992 -1.407051
v 4.235000 34.539993 -1.407051
v 4.235000 25.904995 -1.407051
v 4.235000 17.269997 -1.407051
v 4.235000 8.634997 -1.407051
v -4.235000 8.634997 -1.407050
v -4.235000 17.269997 -1.407050
v -4.235000 25.904995 -1.407050
v -4.235000 34.539993 -1.407050
v -4.235000 43.174992 -1.407050
v -4.235000 51.809990 -1.407050
v -4.235000 60.444988 -1.407050
v -4.235000 69.079987 -1.407050
v -4.235000 77.714981 -1.407050
v 0.600000 0.000000 -1.100000
v 0.600000 4.000000 -1.100000
v 0.882843 0.000000 -0.982843
v 0.882843 4.000000 -0.982843
v 1.000000 0.000000 -0.700000
v 1.000000 4.000000 -0.700000
v 0.882843 0.000000 -0.417157
v 0.882843 4.000000 -0.417157
v 0.600000 0.000000 -0.300000
v 0.600000 4.000000 -0.300000
v 0.317157 0.000000 -0.417157
v 0.317157 4.000000 -0.417157
v 0.200000 0.000000 -0.700000
v 0.200000 4.000000 -0.700000
v 0.317157 0.000000 -0.982843
v 0.317157 4.000000 -0.982843
v 1.800000 0.000000 -1.100000
v 1.800000 4.000000 -1.100000
v 2.082843 0.000000 -0.982843
v 2.082843 4.000000 -0.982843
v 2.200000 0.000000 -0.700000
v 2.200000 4.000000 -0.700000
v 2.082843 0.000000 -0.417157
v 2.082843 4.000000 -0.417157
v 1.800000 0.000000 -0.300000
v 1.800000 4.000000 -0.300000
v 1.517157 0.000000 -0.417157
v 1.517157 4.000000 -0.417157
v 1.400000 0.000000 -0.700000
v 1.400000 4.000000 -0.700000
v 1.517157 0.000000 -0.982843
v 1.517157 4.000000 -0.982843
v -1.800000 0.000000 -1.100000
v -1.800000 4.000000 -1.100000
v -1.517157 0.000000 -0.982843
v -1.517157 4.000000 -0.982843
v -1.400000 0.000000 -0.700000
v -1.400000 4.000000 -0.700000
v -1.517157 0.000000 -0.417157
v -1.517157 4.000000 -0.417157
v -1.800000 0.000000 -0.300000
v -1.800000 4.000000 -0.300000
v -2.082843 0.000000 -0.417157
v -2.082843 4.000000 -0.417157
v -2.200000 0.000000 -0.700000
v -2.200000 4.000000 -0.700000
v -2.082843 0.000000 -0.982843
v -2.082843 4.000000 -0.982843
v -0.600000 0.000000 -1.100000
v -0.600000 4.000000 -1.100000
v -0.317157 0.000000 -0.982843
v -0.317157 4.000000 -0.982843
v -0.200000 0.000000 -0.700000
v -0.200000 4.000000 -0.700000
v -0.317157 0.000000 -0.417157
v -0.317157 4.000000 -0.417157
v -0.600000 0.000000 -0.300000
v -0.600000 4.000000 -0.300000
v -0.882843 0.000000 -0.417157
v -0.882843 4.000000 -0.417157
v -1.000000 0.000000 -0.700000
v -1.000000 4.000000 -0.700000
v -0.882843 0.000000 -0.982843
v -0.882843 4.000000 -0.982843
v 0.600000 0.000000 0.300000
v 0.600000 4.000000 0.300000
v 0.882843 0.000000 0.417157
v 0.882843 4.000000 0.417157
v 1.000000 0.000000 0.700000
v 1.000000 4.000000 0.700000
v 0.882843 0.000000 0.982843
v 0.882843 4.000000 0.982843
v 0.600000 0.000000 1.100000
v 0.600000 4.000000 1.100000
v 0.317157 0.000000 0.982843
v 0.317157 4.000000 0.982843
v 0.200000 0.000000 0.700000
v 0.200000 4.000000 0.700000
v 0.317157 0.000000 0.417157
v 0.317157 4.000000 0.417157
v 1.800000 0.000000 0.300000
v 1.800000 4.000000 0.300000
v 2.082843 0.000000 0.417157
v 2.082843 4.000000 0.417157
v 2.200000 0.000000 0.700000
v 2.200000 4.000000 0.700000
v 2.082843 0.000000 0.982843
v 2.082843 4.000000 0.982843
v 1.800000 0.000000 1.100000
v 1.800000 4.000000 1.100000
v 1.517157 0.000000 0.982843
v 1.517157 4.000000 0.982843
v 1.400000 0.000000 0.700000
v 1.400000 4.000000 0.700000
v 1.517157 0.000000 0.417157
v 1.517157 4.000000 0.417157
v -1.800000 0.000000 0.300000
v -1.800000 4.000000 0.300000
v -1.517157 0.000000 0.417157
v -1.517157 4.000000 0.417157
v -1.400000 0.000000 0.700000
v -1.400000 4.000000 0.700000
v -1.517157 0.000000 0.982843
v -1.517157 4.000000 0.982843
v -1.800000 0.000000 1.100000
v -1.800000 4.000000 1.100000
v -2.082843 0.000000 0.982843
v -2.082843 4.000000 0.982843
v -2.200000 0.000000 0.700000
v -2.200000 4.000000 0.700000
v -2.082843 0.000000 0.417157
v -2.082843 4.000000 0.417157
v -0.600000 0.000000 0.300000
v -0.600000 4.000000 0.300000
v -0.317157 0.000000 0.417157
v -0.317157 4.000000 0.417157
v -0.200000 0.000000 0.700000
v -0.200000 4.000000 0.700000
v -0.317157 0.000000 0.982843
v -0.317157 4.000000 0.982843
v -0.600000 0.000000 1.100000
v -0.600000 4.000000 1.100000
v -0.882843 0.000000 0.982843
v -0.882843 4.000000 0.982843
v -1.000000 0.000000 0.700000
v -1.000000 4.000000 0.700000
v -0.882843 0.000000 0.417157
v -0.882843 4.000000 0.417157
vn -0.5774 0.5773 0.5773
vn -0.5774 -0.5773 -0.5773
vn -0.5774 -0.5773 0.5774
vn -0.5774 0.5773 -0.5774
vn 0.5774 -0.5773 -0.5774
vn 0.5774 0.5773 -0.5773
vn 0.5774 -0.5773 0.5773
vn 0.5774 0.5773 0.5774
vn -0.7071 -0.0000 -0.7071
vn 0.5773 0.5773 -0.5774
vn 0.7071 -0.0000 -0.7071
vn 0.7071 -0.0000 0.7071
vn -0.5773 0.5773 0.5774
vn -0.7071 -0.0000 0.7071
vn 0.5773 -0.5773 0.5774
vn -0.5773 -0.5774 0.5773
vn -0.5773 -0.5773 -0.5774
vn 0.5773 -0.5774 -0.5773
vn 0.5773 0.5773 0.5774
vn -0.5773 0.5773 -0.5774
vn 0.5773 -0.5773 -0.5774
vn -0.5773 -0.5773 0.5774
vn -0.5773 0.5774 -0.5773
vn 0.5773 0.5774 0.5773
vn 0.3827 -0.0000 -0.9239
vn 0.9239 -0.0000 -0.3827
vn 0.9239 -0.0000 0.3827
vn 0.3827 -0.0000 0.9239
vn -0.3827 -0.0000 0.9239
vn -0.9239 -0.0000 0.3827
vn -0.0000 1.0000 -0.0000
vn -0.9239 -0.0000 -0.3827
vn -0.3827 -0.0000 -0.9239
vn -0.0000 -1.0000 -0.0000
vt 0.018165 0.965148
vt 0.484980 0.965148
vt 0.484980 0.044984
vt 0.018165 0.044984
vt 0.998552 0.500885
vt 0.500092 0.999908
vt 0.500092 0.500885
vt 0.998552 0.999908
vt 0.814714 0.465471
vt 0.845342 0.032331
vt 0.814714 0.032331
vt 0.845342 0.465471
vt 0.858028 0.032331
vt 0.858028 0.465471
vt 0.784087 0.032331
vt 0.784087 0.465471
vt 0.771400 0.032331
vt 0.771400 0.465471
vt 0.944656 0.465471
vt 0.975284 0.032331
vt 0.944656 0.032331
vt 0.975284 0.465471
vt 0.987970 0.032331
vt 0.987970 0.465471
vt 0.914029 0.032331
vt 0.914029 0.465471
vt 0.901342 0.032331
vt 0.901342 0.465471
vt 0.554831 0.465471
vt 0.585458 0.032331
vt 0.554831 0.032331
vt 0.585458 0.465471
vt 0.598145 0.032331
vt 0.598145 0.465471
vt 0.524203 0.032331
vt 0.524203 0.465471
vt 0.511517 0.032331
vt 0.511517 0.465471
vt 0.684772 0.465471
vt 0.715400 0.032331
vt 0.684772 0.032331
vt 0.715400 0.465471
vt 0.728086 0.032331
vt 0.728086 0.465471
vt 0.654145 0.032331
vt 0.654145 0.465471
vt 0.641459 0.032331
vt 0.641459 0.465471
s 1
usemtl Estela
f 2/1/1 3/2/2 1/1/3
f 4/2/4 7/3/5 3/2/2
f 8/3/6 5/4/7 7/3/5
f 6/4/8 1/1/3 5/4/7
f 7/3/5 1/1/3 3/2/2
f 4/2/4 6/4/8 8/3/6
f 50/5/9 11/6/10 33/7/11
f 32/5/12 15/6/13 17/7/14
f 14/6/15 24/5/14 13/8/16
f 25/5/12 23/6/14 24/7/14
f 26/5/12 22/6/14 23/7/14
f 27/5/12 21/6/14 22/7/14
f 28/5/12 20/6/14 21/7/14
f 29/5/12 19/6/14 20/7/14
f 30/5/12 18/6/14 19/7/14
f 31/5/12 17/6/14 18/7/14
f 10/6/17 41/5/11 9/8/18
f 42/6/9 40/5/11 41/8/11
f 43/5/9 39/6/11 40/7/11
f 44/6/9 38/5/11 39/8/11
f 45/6/9 37/5/11 38/8/11
f 46/6/9 36/5/11 37/8/11
f 47/6/9 35/5/11 36/8/11
f 48/5/9 34/6/11 35/7/11
f 49/6/9 33/5/11 34/8/11
f 53/6/19 92/5/14 75/7/12
f 57/6/20 74/5/11 59/7/9
f 66/5/9 56/6/21 55/8/2
f 65/6/9 67/5/11 66/7/9
f 64/6/9 68/5/11 65/7/9
f 63/6/9 69/5/11 64/7/9
f 62/6/9 70/5/11 63/7/9
f 61/6/9 71/5/11 62/7/9
f 60/6/9 72/5/11 61/7/9
f 59/6/9 73/5/11 60/7/9
f 83/5/12 52/6/22 51/8/7
f 82/5/12 84/6/14 83/8/12
f 81/6/12 85/5/14 82/7/12
f 80/5/12 86/6/14 81/8/12
f 79/5/12 87/6/14 80/8/12
f 78/5/12 88/6/14 79/8/12
f 77/5/12 89/6/14 78/8/12
f 76/6/12 90/5/14 77/7/12
f 75/5/12 91/6/14 76/8/12
f 41/5/11 51/8/7 9/8/18
f 9/8/18 52/6/22 10/6/17
f 50/5/9 54/8/1 12/8/23
f 12/8/23 53/6/19 11/6/10
f 24/5/14 55/8/2 13/8/16
f 13/8/16 56/6/21 14/6/15
f 32/5/12 58/8/6 16/8/24
f 16/8/24 57/6/20 15/6/13
f 15/6/13 59/7/9 17/7/14
f 17/6/14 60/7/9 18/7/14
f 18/6/14 61/7/9 19/7/14
f 19/6/14 62/7/9 20/7/14
f 20/6/14 63/7/9 21/7/14
f 21/6/14 64/7/9 22/7/14
f 22/6/14 65/7/9 23/7/14
f 23/6/14 66/7/9 24/7/14
f 14/6/15 67/7/11 25/7/12
f 25/5/12 68/8/11 26/8/12
f 26/5/12 69/8/11 27/8/12
f 27/5/12 70/8/11 28/8/12
f 28/5/12 71/8/11 29/8/12
f 29/5/12 72/8/11 30/8/12
f 30/5/12 73/8/11 31/8/12
f 31/5/12 74/8/11 32/8/12
f 11/6/10 75/7/12 33/7/11
f 33/5/11 76/8/12 34/8/11
f 34/6/11 77/7/12 35/7/11
f 35/5/11 78/8/12 36/8/11
f 36/5/11 79/8/12 37/8/11
f 37/5/11 80/8/12 38/8/11
f 38/5/11 81/8/12 39/8/11
f 39/6/11 82/7/12 40/7/11
f 40/5/11 83/8/12 41/8/11
f 10/6/17 84/7/14 42/7/9
f 42/6/9 85/7/14 43/7/9
f 43/5/9 86/8/14 44/8/9
f 44/6/9 87/7/14 45/7/9
f 45/6/9 88/7/14 46/7/9
f 46/6/9 89/7/14 47/7/9
f 47/6/9 90/7/14 48/7/9
f 48/5/9 91/8/14 49/8/9
f 49/6/9 92/7/14 50/7/9
s 0
f 94/9/25 95/10/25 93/11/25
f 96/12/26 97/13/26 95/10/26
f 98/14/27 99/10/27 97/13/27
f 100/12/28 101/11/28 99/10/28
f 102/9/29 103/15/29 101/11/29
f 104/16/30 105/17/30 103/15/30
f 106/18/31 102/9/31 98/14/31
f 106/18/32 107/15/32 105/17/32
f 108/16/33 93/11/33 107/15/33
f 103/15/34 105/17/34 107/15/34
f 110/19/25 111/20/25 109/21/25
f 112/22/26 113/23/26 111/20/26
f 114/24/27 115/20/27 113/23/27
f 116/22/28 117/21/28 115/20/28
f 118/19/29 119/25/29 117/21/29
f 120/26/30 121/27/30 119/25/30
f 122/28/31 118/19/31 114/24/31
f 122/28/32 123/25/32 121/27/32
f 124/26/33 109/21/33 123/25/33
f 121/27/34 123/25/34 115/20/34
f 126/29/25 127/30/25 125/31/25
f 128/32/26 129/33/26 127/30/26
f 130/34/27 131/30/27 129/33/27
f 132/32/28 133/31/28 131/30/28
f 134/29/29 135/35/29 133/31/29
f 136/36/30 137/37/30 135/35/30
f 138/38/31 134/29/31 130/34/31
f 138/38/32 139/35/32 137/37/32
f 140/36/33 125/31/33 139/35/33
f 137/37/34 139/35/34 131/30/34
f 142/39/25 143/40/25 141/41/25
f 144/42/26 145/43/26 143/40/26
f 146/44/27 147/40/27 145/43/27
f 148/42/28 149/41/28 147/40/28
f 150/39/29 151/45/29 149/41/29
f 152/46/30 153/47/30 151/45/30
f 154/48/31 150/39/31 146/44/31
f 154/48/32 155/45/32 153/47/32
f 156/46/33 141/41/33 155/45/33
f 153/47/34 155/45/34 147/40/34
f 158/9/25 159/10/25 157/11/25
f 160/12/26 161/13/26 159/10/26
f 162/14/27 163/10/27 161/13/27
f 164/12/28 165/11/28 163/10/28
f 166/9/29 167/15/29 165/11/29
f 168/16/30 169/17/30 167/15/30
f 170/18/31 166/9/31 162/14/31
f 170/18/32 171/15/32 169/17/32
f 172/16/33 157/11/33 171/15/33
f 163/10/34 167/15/34 171/15/34
f 174/19/25 175/20/25 173/21/25
f 176/22/26 177/23/26 175/20/26
f 178/24/27 179/20/27 177/23/27
f 180/22/28 181/21/28 179/20/28
f 182/19/29 183/25/29 181/21/29
f 184/26/30 185/27/30 183/25/30
f 186/28/31 182/19/31 178/24/31
f 186/28/32 187/25/32 185/27/32
f 188/26/33 173/21/33 187/25/33
f 185/27/34 187/25/34 179/20/34
f 190/29/25 191/30/25 189/31/25
f 192/32/26 193/33/26 191/30/26
f 194/34/27 195/30/27 193/33/27
f 196/32/28 197/31/28 195/30/28
f 198/29/29 199/35/29 197/31/29
f 200/36/30 201/37/30 199/35/30
f 202/38/31 198/29/31 194/34/31
f 202/38/32 203/35/32 201/37/32
f 204/36/33 189/31/33 203/35/33
f 201/37/34 203/35/34 195/30/34
f 206/39/25 207/40/25 205/41/25
f 208/42/26 209/43/26 207/40/26
f 210/44/27 211/40/27 209/43/27
f 212/42/28 213/41/28 211/40/28
f 214/39/29 215/45/29 213/41/29
f 216/46/30 217/47/30 215/45/30
f 218/48/31 214/39/31 210/44/31
f 218/48/32 219/45/32 217/47/32
f 220/46/33 205/41/33 219/45/33
f 217/47/34 219/45/34 211/40/34
s 1
f 2/1/1 4/2/4 3/2/2
f 4/2/4 8/3/6 7/3/5
f 8/3/6 6/4/8 5/4/7
f 6/4/8 2/1/1 1/1/3
f 7/3/5 5/4/7 1/1/3
f 4/2/4 2/1/1 6/4/8
f 50/5/9 12/8/23 11/6/10
f 32/5/12 16/8/24 15/6/13
f 14/6/15 25/7/12 24/5/14
f 25/5/12 26/8/12 23/6/14
f 26/5/12 27/8/12 22/6/14
f 27/5/12 28/8/12 21/6/14
f 28/5/12 29/8/12 20/6/14
f 29/5/12 30/8/12 19/6/14
f 30/5/12 31/8/12 18/6/14
f 31/5/12 32/8/12 17/6/14
f 10/6/17 42/7/9 41/5/11
f 42/6/9 43/7/9 40/5/11
f 43/5/9 44/8/9 39/6/11
f 44/6/9 45/7/9 38/5/11
f 45/6/9 46/7/9 37/5/11
f 46/6/9 47/7/9 36/5/11
f 47/6/9 48/7/9 35/5/11
f 48/5/9 49/8/9 34/6/11
f 49/6/9 50/7/9 33/5/11
f 53/6/19 54/8/1 92/5/14
f 57/6/20 58/8/6 74/5/11
f 66/5/9 67/7/11 56/6/21
f 65/6/9 68/8/11 67/5/11
f 64/6/9 69/8/11 68/5/11
f 63/6/9 70/8/11 69/5/11
f 62/6/9 71/8/11 70/5/11
f 61/6/9 72/8/11 71/5/11
f 60/6/9 73/8/11 72/5/11
f 59/6/9 74/8/11 73/5/11
f 83/5/12 84/7/14 52/6/22
f 82/5/12 85/7/14 84/6/14
f 81/6/12 86/8/14 85/5/14
f 80/5/12 87/7/14 86/6/14
f 79/5/12 88/7/14 87/6/14
f 78/5/12 89/7/14 88/6/14
f 77/5/12 90/7/14 89/6/14
f 76/6/12 91/8/14 90/5/14
f 75/5/12 92/7/14 91/6/14
f 41/5/11 83/5/12 51/8/7
f 9/8/18 51/8/7 52/6/22
f 50/5/9 92/5/14 54/8/1
f 12/8/23 54/8/1 53/6/19
f 24/5/14 66/5/9 55/8/2
f 13/8/16 55/8/2 56/6/21
f 32/5/12 74/5/11 58/8/6
f 16/8/24 58/8/6 57/6/20
f 15/6/13 57/6/20 59/7/9
f 17/6/14 59/6/9 60/7/9
f 18/6/14 60/6/9 61/7/9
f 19/6/14 61/6/9 62/7/9
f 20/6/14 62/6/9 63/7/9
f 21/6/14 63/6/9 64/7/9
f 22/6/14 64/6/9 65/7/9
f 23/6/14 65/6/9 66/7/9
f 14/6/15 56/6/21 67/7/11
f 25/5/12 67/5/11 68/8/11
f 26/5/12 68/5/11 69/8/11
f 27/5/12 69/5/11 70/8/11
f 28/5/12 70/5/11 71/8/11
f 29/5/12 71/5/11 72/8/11
f 30/5/12 72/5/11 73/8/11
f 31/5/12 73/5/11 74/8/11
f 11/6/10 53/6/19 75/7/12
f 33/5/11 75/5/12 76/8/12
f 34/6/11 76/6/12 77/7/12
f 35/5/11 77/5/12 78/8/12
f 36/5/11 78/5/12 79/8/12
f 37/5/11 79/5/12 80/8/12
f 38/5/11 80/5/12 81/8/12
f 39/6/11 81/6/12 82/7/12
f 40/5/11 82/5/12 83/8/12
f 10/6/17 52/6/22 84/7/14
f 42/6/9 84/6/14 85/7/14
f 43/5/9 85/5/14 86/8/14
f 44/6/9 86/6/14 87/7/14
f 45/6/9 87/6/14 88/7/14
f 46/6/9 88/6/14 89/7/14
f 47/6/9 89/6/14 90/7/14
f 48/5/9 90/5/14 91/8/14
f 49/6/9 91/6/14 92/7/14
s 0
f 94/9/25 96/12/25 95/10/25
f 96/12/26 98/14/26 97/13/26
f 98/14/27 100/12/27 99/10/27
f 100/12/28 102/9/28 101/11/28
f 102/9/29 104/16/29 103/15/29
f 104/16/30 106/18/30 105/17/30
f 98/14/31 96/12/31 94/9/31
f 94/9/31 108/16/31 106/18/31
f 106/18/31 104/16/31 102/9/31
f 102/9/31 100/12/31 98/14/31
f 98/14/31 94/9/31 106/18/31
f 106/18/32 108/16/32 107/15/32
f 108/16/33 94/9/33 93/11/33
f 107/15/34 93/11/34 95/10/34
f 95/10/34 97/13/34 107/15/34
f 97/13/34 99/10/34 107/15/34
f 99/10/34 101/11/34 107/15/34
f 101/11/34 103/15/34 107/15/34
f 110/19/25 112/22/25 111/20/25
f 112/22/26 114/24/26 113/23/26
f 114/24/27 116/22/27 115/20/27
f 116/22/28 118/19/28 117/21/28
f 118/19/29 120/26/29 119/25/29
f 120/26/30 122/28/30 121/27/30
f 114/24/31 112/22/31 110/19/31
f 110/19/31 124/26/31 122/28/31
f 122/28/31 120/26/31 118/19/31
f 118/19/31 116/22/31 114/24/31
f 114/24/31 110/19/31 122/28/31
f 122/28/32 124/26/32 123/25/32
f 124/26/33 110/19/33 109/21/33
f 123/25/34 109/21/34 111/20/34
f 111/20/34 113/23/34 123/25/34
f 113/23/34 115/20/34 123/25/34
f 115/20/34 117/21/34 119/25/34
f 119/25/34 121/27/34 115/20/34
f 126/29/25 128/32/25 127/30/25
f 128/32/26 130/34/26 129/33/26
f 130/34/27 132/32/27 131/30/27
f 132/32/28 134/29/28 133/31/28
f 134/29/29 136/36/29 135/35/29
f 136/36/30 138/38/30 137/37/30
f 130/34/31 128/32/31 126/29/31
f 126/29/31 140/36/31 138/38/31
f 138/38/31 136/36/31 134/29/31
f 134/29/31 132/32/31 130/34/31
f 130/34/31 126/29/31 138/38/31
f 138/38/32 140/36/32 139/35/32
f 140/36/33 126/29/33 125/31/33
f 139/35/34 125/31/34 127/30/34
f 127/30/34 129/33/34 139/35/34
f 129/33/34 131/30/34 139/35/34
f 131/30/34 133/31/34 135/35/34
f 135/35/34 137/37/34 131/30/34
f 142/39/25 144/42/25 143/40/25
f 144/42/26 146/44/26 145/43/26
f 146/44/27 148/42/27 147/40/27
f 148/42/28 150/39/28 149/41/28
f 150/39/29 152/46/29 151/45/29
f 152/46/30 154/48/30 153/47/30
f 146/44/31 144/42/31 142/39/31
f 142/39/31 156/46/31 154/48/31
f 154/48/31 152/46/31 150/39/31
f 150/39/31 148/42/31 146/44/31
f 146/44/31 142/39/31 154/48/31
f 154/48/32 156/46/32 155/45/32
f 156/46/33 142/39/33 141/41/33
f 155/45/34 141/41/34 143/40/34
f 143/40/34 145/43/34 155/45/34
f 145/43/34 147/40/34 155/45/34
f 147/40/34 149/41/34 151/45/34
f 151/45/34 153/47/34 147/40/34
f 158/9/25 160/12/25 159/10/25
f 160/12/26 162/14/26 161/13/26
f 162/14/27 164/12/27 163/10/27
f 164/12/28 166/9/28 165/11/28
f 166/9/29 168/16/29 167/15/29
f 168/16/30 170/18/30 169/17/30
f 162/14/31 160/12/31 158/9/31
f 158/9/31 172/16/31 170/18/31
f 170/18/31 168/16/31 166/9/31
f 166/9/31 164/12/31 162/14/31
f 162/14/31 158/9/31 170/18/31
f 170/18/32 172/16/32 171/15/32
f 172/16/33 158/9/33 157/11/33
f 171/15/34 157/11/34 159/10/34
f 159/10/34 161/13/34 171/15/34
f 161/13/34 163/10/34 171/15/34
f 163/10/34 165/11/34 167/15/34
f 167/15/34 169/17/34 171/15/34
f 174/19/25 176/22/25 175/20/25
f 176/22/26 178/24/26 177/23/26
f 178/24/27 180/22/27 179/20/27
f 180/22/28 182/19/28 181/21/28
f 182/19/29 184/26/29 183/25/29
f 184/26/30 186/28/30 185/27/30
f 178/24/31 176/22/31 174/19/31
f 174/19/31 188/26/31 186/28/31
f 186/28/31 184/26/31 182/19/31
f 182/19/31 180/22/31 178/24/31
f 178/24/31 174/19/31 186/28/31
f 186/28/32 188/26/32 187/25/32
f 188/26/33 174/19/33 173/21/33
f 187/25/34 173/21/34 175/20/34
f 175/20/34 177/23/34 187/25/34
f 177/23/34 179/20/34 187/25/34
f 179/20/34 181/21/34 183/25/34
f 183/25/34 185/27/34 179/20/34
f 190/29/25 192/32/25 191/30/25
f 192/32/26 194/34/26 193/33/26
f 194/34/27 196/32/27 195/30/27
f 196/32/28 198/29/28 197/31/28
f 198/29/29 200/36/29 199/35/29
f 200/36/30 202/38/30 201/37/30
f 194/34/31 192/32/31 190/29/31
f 190/29/31 204/36/31 202/38/31
f 202/38/31 200/36/31 198/29/31
f 198/29/31 196/32/31 194/34/31
f 194/34/31 190/29/31 202/38/31
f 202/38/32 204/36/32 203/35/32
f 204/36/33 190/29/33 189/31/33
f 203/35/34 189/31/34 191/30/34
f 191/30/34 193/33/34 203/35/34
f 193/33/34 195/30/34 203/35/34
f 195/30/34 197/31/34 199/35/34
f 199/35/34 201/37/34 195/30/34
f 206/39/25 208/42/25 207/40/25
f 208/42/26 210/44/26 209/43/26
f 210/44/27 212/42/27 211/40/27
f 212/42/28 214/39/28 213/41/28
f 214/39/29 216/46/29 215/45/29
f 216/46/30 218/48/30 217/47/30
f 210/44/31 208/42/31 206/39/31
f 206/39/31 220/46/31 218/48/31
f 218/48/31 216/46/31 214/39/31
f 214/39/31 212/42/31 210/44/31
f 210/44/31 206/39/31 218/48/31
f 218/48/32 220/46/32 219/45/32
f 220/46/33 206/39/33 205/41/33
f 219/45/34 205/41/34 207/40/34
f 207/40/34 209/43/34 219/45/34
f 209/43/34 211/40/34 219/45/34
f 211/40/34 213/41/34 215/45/34
f 215/45/34 217/47/34 211/40/34
