# 3ds Max Wavefront OBJ Exporter v0.99 - (c)2007 guruware
# File Created: 05.05.2024 16:31:15

mtllib Llanta_AE86.mtl

#
# object Llanta_AE86
#

v  0.2171 0.1356 0.0964
v  0.1414 0.2197 0.0968
v  0.1248 0.1967 0.1248
v  0.1926 0.1213 0.1244
v  0.2239 0.0250 0.1242
v  0.2521 0.0280 0.0962
v  0.2133 -0.0758 0.1243
v  0.2403 -0.0846 0.0962
v  0.1911 0.1213 -0.1467
v  0.1233 0.1967 -0.1463
v  0.1402 0.2197 -0.1264
v  0.2159 0.1356 -0.1268
v  0.2224 0.0250 -0.1468
v  0.2509 0.0280 -0.1270
v  0.2390 -0.0846 -0.1270
v  0.2118 -0.0758 -0.1468
v  -0.0185 -0.0005 0.1256
v  0.0193 0.0533 -0.1123
v  0.0434 -0.0210 -0.1124
v  -0.0198 -0.0005 -0.1121
v  0.1676 0.1080 -0.1688
v  0.1074 0.1749 -0.1684
v  0.1955 0.0221 -0.1689
v  0.1861 -0.0675 -0.1689
v  0.0973 0.1610 -0.1684
v  0.1527 0.0994 -0.1687
v  0.1784 0.0203 -0.1688
v  0.1698 -0.0622 -0.1688
v  0.1530 0.0994 -0.1177
v  0.0975 0.1610 -0.1174
v  0.1787 0.0203 -0.1178
v  0.1701 -0.0622 -0.1178
v  0.0689 0.1213 -0.0888
v  0.1105 0.0749 -0.0890
v  0.1299 0.0150 -0.0891
v  0.1235 -0.0470 -0.0891
v  -0.2502 -0.0758 0.1268
v  -0.2608 0.0250 0.1269
v  -0.2893 0.0280 0.0992
v  -0.2775 -0.0846 0.0991
v  -0.2295 0.1213 0.1267
v  -0.2544 0.1356 0.0990
v  -0.1617 0.1967 0.1264
v  -0.1786 0.2197 0.0985
v  -0.2623 0.0250 -0.1442
v  -0.2517 -0.0758 -0.1442
v  -0.2787 -0.0846 -0.1241
v  -0.2906 0.0280 -0.1241
v  -0.2556 0.1356 -0.1243
v  -0.2310 0.1213 -0.1444
v  -0.1798 0.2197 -0.1247
v  -0.1632 0.1967 -0.1447
v  -0.0830 -0.0210 -0.1117
v  -0.0588 0.0533 -0.1119
v  -0.2263 -0.0675 -0.1666
v  -0.2357 0.0221 -0.1665
v  -0.2078 0.1080 -0.1667
v  -0.1475 0.1749 -0.1670
v  -0.2185 0.0203 -0.1666
v  -0.2099 -0.0622 -0.1667
v  -0.1928 0.0994 -0.1668
v  -0.1374 0.1610 -0.1671
v  -0.2183 0.0203 -0.1156
v  -0.2097 -0.0622 -0.1157
v  -0.1926 0.0994 -0.1158
v  -0.1371 0.1610 -0.1161
v  -0.1628 -0.0470 -0.0875
v  -0.1692 0.0150 -0.0875
v  -0.1498 0.0749 -0.0876
v  -0.1081 0.1213 -0.0878
v  -0.0185 -0.2442 0.1256
v  -0.1176 -0.2231 0.1261
v  -0.1293 -0.2492 0.0983
v  -0.0186 -0.2727 0.0977
v  -0.1996 -0.1636 0.1266
v  -0.2209 -0.1826 0.0988
v  -0.1306 -0.2492 -0.1249
v  -0.1191 -0.2231 -0.1450
v  -0.0200 -0.2442 -0.1455
v  -0.0198 -0.2727 -0.1255
v  -0.2221 -0.1826 -0.1244
v  -0.2010 -0.1636 -0.1445
v  -0.0198 -0.0669 -0.1121
v  -0.0201 -0.2173 -0.1677
v  -0.1082 -0.1986 -0.1672
v  -0.1812 -0.1455 -0.1668
v  -0.1011 -0.1828 -0.1673
v  -0.0201 -0.2001 -0.1677
v  -0.1684 -0.1339 -0.1669
v  -0.1009 -0.1828 -0.1163
v  -0.0198 -0.2001 -0.1167
v  -0.1682 -0.1339 -0.1159
v  -0.0196 -0.1511 -0.0883
v  -0.0806 -0.1380 -0.0880
v  -0.1315 -0.1010 -0.0877
v  -0.0691 0.2379 0.1258
v  -0.0752 0.2658 0.0980
v  0.0322 0.2379 0.1253
v  0.0380 0.2658 0.0974
v  -0.0764 0.2658 -0.1252
v  -0.0706 0.2379 -0.1452
v  0.0368 0.2658 -0.1259
v  0.0307 0.2379 -0.1458
v  -0.0652 0.2115 -0.1675
v  0.0251 0.2115 -0.1680
v  -0.0617 0.1947 -0.1675
v  0.0215 0.1947 -0.1680
v  -0.0614 0.1947 -0.1165
v  0.0218 0.1947 -0.1170
v  -0.0511 0.1466 -0.0881
v  0.0118 0.1466 -0.0885
v  0.1626 -0.1636 0.1246
v  0.1837 -0.1826 0.0966
v  0.0807 -0.2231 0.1250
v  0.0921 -0.2492 0.0971
v  0.1824 -0.1826 -0.1267
v  0.1611 -0.1636 -0.1465
v  0.0909 -0.2492 -0.1262
v  0.0792 -0.2231 -0.1461
v  0.1411 -0.1455 -0.1686
v  0.0680 -0.1986 -0.1682
v  0.1283 -0.1339 -0.1685
v  0.0610 -0.1828 -0.1682
v  0.1286 -0.1339 -0.1175
v  0.0613 -0.1828 -0.1172
v  0.0923 -0.1010 -0.0889
v  0.0413 -0.1380 -0.0886
# 127 vertices

vn 0.8624 0.4976 0.0934
vn 0.5855 0.8051 0.0947
vn 0.4150 0.5662 0.7122
vn 0.6095 0.3501 0.7113
vn 0.6993 0.0736 0.7110
vn 0.9902 0.1040 0.0930
vn 0.6689 -0.2156 0.7114
vn 0.9469 -0.3075 0.0935
vn 0.5158 0.2995 -0.8027
vn 0.3487 0.4853 -0.8018
vn 0.5844 0.8049 -0.1036
vn 0.8612 0.4974 -0.1049
vn 0.5928 0.0622 -0.8029
vn 0.9890 0.1038 -0.1053
vn 0.9457 -0.3076 -0.1048
vn 0.5668 -0.1863 -0.8025
vn 0.0055 0.0008 1.0000
vn 0.0939 0.1359 -0.9863
vn 0.1553 -0.0530 -0.9864
vn -0.0055 -0.0008 -1.0000
vn 0.5472 0.3177 -0.7744
vn 0.3702 0.5147 -0.7733
vn 0.6290 0.0659 -0.7746
vn 0.6016 -0.1975 -0.7740
vn -0.8664 -0.4993 0.0051
vn -0.5878 -0.8090 0.0039
vn -0.9944 -0.1051 0.0055
vn -0.9510 0.3091 0.0050
vn -0.2991 -0.4058 -0.8636
vn -0.4387 -0.2503 -0.8631
vn -0.1549 -0.1148 -0.9812
vn -0.5025 -0.0537 -0.8629
vn -0.1934 0.0037 -0.9811
vn -0.4810 0.1541 -0.8631
vn -0.6611 -0.2155 0.7187
vn -0.6915 0.0737 0.7186
vn -0.9891 0.1042 0.1038
vn -0.9459 -0.3074 0.1039
vn -0.6016 0.3502 0.7179
vn -0.8612 0.4977 0.1028
vn -0.4070 0.5663 0.7167
vn -0.5843 0.8052 0.1011
vn -0.6016 0.0623 -0.7964
vn -0.5756 -0.1862 -0.7962
vn -0.9469 -0.3075 -0.0944
vn -0.9901 0.1040 -0.0945
vn -0.8622 0.4975 -0.0955
vn -0.5245 0.2996 -0.7970
vn -0.5853 0.8049 -0.0972
vn -0.3574 0.4853 -0.7980
vn -0.1661 -0.0530 -0.9847
vn -0.1047 0.1359 -0.9852
vn -0.6101 -0.1974 -0.7674
vn -0.6374 0.0660 -0.7677
vn -0.5556 0.3178 -0.7683
vn -0.3786 0.5148 -0.7692
vn 0.9944 -0.1053 -0.0054
vn 0.9511 0.3089 -0.0055
vn 0.8663 -0.4995 -0.0044
vn 0.5877 -0.8091 -0.0026
vn 0.4715 0.1540 -0.8683
vn 0.4930 -0.0538 -0.8683
vn 0.1826 0.0037 -0.9832
vn 0.1440 -0.1149 -0.9829
vn 0.4291 -0.2504 -0.8678
vn 0.2896 -0.4058 -0.8669
vn 0.0039 -0.6987 0.7154
vn -0.2805 -0.6382 0.7169
vn -0.4043 -0.9090 0.1014
vn 0.0005 -0.9951 0.0993
vn -0.5157 -0.4673 0.7181
vn -0.7390 -0.6657 0.1031
vn -0.4053 -0.9090 -0.0969
vn -0.2488 -0.5492 -0.7978
vn -0.0044 -0.6013 -0.7990
vn -0.0006 -0.9951 -0.0990
vn -0.7400 -0.6658 -0.0952
vn -0.4506 -0.4025 -0.7968
vn -0.0054 -0.1697 -0.9855
vn -0.0043 -0.6376 -0.7704
vn -0.2632 -0.5822 -0.7692
vn -0.4774 -0.4266 -0.7682
vn 0.4074 0.9132 -0.0029
vn 0.0001 1.0000 -0.0008
vn 0.7427 0.6696 -0.0046
vn -0.0047 0.5001 -0.8660
vn 0.1996 0.4563 -0.8671
vn 0.0485 0.1794 -0.9826
vn 0.1493 0.1061 -0.9831
vn 0.3668 0.3348 -0.8680
vn -0.1414 0.6845 0.7151
vn -0.2063 0.9735 0.0989
vn 0.1494 0.6845 0.7135
vn 0.2075 0.9735 0.0966
vn -0.2073 0.9732 -0.0994
vn -0.1291 0.5868 -0.7994
vn 0.2064 0.9732 -0.1017
vn 0.1204 0.5868 -0.8007
vn -0.1366 0.6222 -0.7709
vn 0.1282 0.6222 -0.7723
vn 0.2071 -0.9783 -0.0004
vn -0.2073 -0.9783 0.0019
vn 0.0986 -0.4905 -0.8658
vn 0.0569 -0.1782 -0.9824
vn -0.1081 -0.4905 -0.8647
vn -0.0677 -0.1782 -0.9817
vn 0.5235 -0.4674 0.7124
vn 0.7400 -0.6659 0.0949
vn 0.2883 -0.6383 0.7138
vn 0.4052 -0.9091 0.0970
vn 0.7388 -0.6659 -0.1034
vn 0.4418 -0.4026 -0.8017
vn 0.4041 -0.9091 -0.1013
vn 0.2399 -0.5492 -0.8005
vn 0.4689 -0.4267 -0.7734
vn 0.2547 -0.5823 -0.7721
vn -0.7426 0.6697 0.0036
vn -0.4073 0.9133 0.0015
vn -0.3763 0.3349 -0.8639
vn -0.1601 0.1061 -0.9814
vn -0.2090 0.4564 -0.8649
vn -0.0592 0.1794 -0.9820
# 122 vertex normals

vt 0.8125 0.6641 0.0000
vt 0.8125 0.7188 0.0000
vt 0.7891 0.7188 0.0000
vt 0.7891 0.6641 0.0000
vt 0.7891 0.6016 0.0000
vt 0.8125 0.6016 0.0000
vt 0.7891 0.5547 0.0000
vt 0.8125 0.5547 0.0000
vt 0.9570 0.6641 0.0000
vt 0.9570 0.7188 0.0000
vt 0.9375 0.7188 0.0000
vt 0.9375 0.6641 0.0000
vt 0.9570 0.6016 0.0000
vt 0.9375 0.6016 0.0000
vt 0.9375 0.5547 0.0000
vt 0.9570 0.5547 0.0000
vt 0.7689 0.1896 0.0000
vt 0.8078 0.1896 0.0000
vt 0.7490 0.2837 0.0000
vt 0.7282 0.1896 0.0000
vt 0.6928 0.1896 0.0000
vt 0.7656 0.3281 0.0000
vt 0.7109 0.3281 0.0000
vt 0.7422 0.2969 0.0000
vt 0.9805 0.6641 0.0000
vt 0.9805 0.7188 0.0000
vt 0.9805 0.6016 0.0000
vt 0.9805 0.5547 0.0000
vt 0.8125 0.4867 0.0000
vt 0.8125 0.5000 0.0000
vt 0.7656 0.5000 0.0000
vt 0.7656 0.4867 0.0000
vt 0.7109 0.4867 0.0000
vt 0.7109 0.5000 0.0000
vt 0.6641 0.5000 0.0000
vt 0.6641 0.4867 0.0000
vt 0.7656 0.4528 0.0000
vt 0.8125 0.4528 0.0000
vt 0.7109 0.4528 0.0000
vt 0.6641 0.4528 0.0000
vt 0.8125 0.4154 0.0000
vt 0.7656 0.4154 0.0000
vt 0.7109 0.4154 0.0000
vt 0.6641 0.4154 0.0000
# 44 texture coords

o Llanta_AE86
g Llanta_AE86
usemtl initialShadingGroup
s 1
f 1/1/1 2/2/2 3/3/3 
f 3/3/3 4/4/4 1/1/1 
f 5/5/5 6/6/6 1/1/1 
f 1/1/1 4/4/4 5/5/5 
f 5/5/5 7/7/7 8/8/8 
f 8/8/8 6/6/6 5/5/5 
f 9/9/9 10/10/10 11/11/11 
f 11/11/11 12/12/12 9/9/9 
f 13/13/13 9/9/9 12/12/12 
f 12/12/12 14/14/14 13/13/13 
f 14/14/14 15/15/15 16/16/16 
f 16/16/16 13/13/13 14/14/14 
f 12/12/12 11/11/11 2/2/2 
f 2/2/2 1/1/1 12/12/12 
f 14/14/14 12/12/12 1/1/1 
f 1/1/1 6/6/6 14/14/14 
f 8/8/8 15/15/15 14/14/14 
f 14/14/14 6/6/6 8/8/8 
s 3
f 4/17/17 3/18/17 17/19/17 
f 5/20/17 4/17/17 17/19/17 
f 7/21/17 5/20/17 17/19/17 
s 4
f 18/22/18 19/23/19 20/24/20 
s 1
f 9/9/9 21/25/21 22/26/22 
f 22/26/22 10/10/10 9/9/9 
f 21/25/21 9/9/9 13/13/13 
f 13/13/13 23/27/23 21/25/21 
f 24/28/24 23/27/23 13/13/13 
f 13/13/13 16/16/16 24/28/24 
s 5
f 25/29/20 22/30/20 21/31/20 
f 21/31/20 26/32/20 25/29/20 
f 27/33/20 26/32/20 21/31/20 
f 21/31/20 23/34/20 27/33/20 
f 23/34/20 24/35/20 28/36/20 
f 28/36/20 27/33/20 23/34/20 
s 6
f 29/37/25 30/38/26 25/29/26 
f 25/29/26 26/32/25 29/37/25 
f 29/37/25 26/32/25 27/33/27 
f 27/33/27 31/39/27 29/37/25 
f 27/33/27 28/36/28 32/40/28 
f 32/40/28 31/39/27 27/33/27 
s 4
f 33/41/29 30/38/29 29/37/30 
f 29/37/30 34/42/31 33/41/29 
f 34/42/31 29/37/30 31/39/32 
f 31/39/32 35/43/33 34/42/31 
f 32/40/34 36/44/34 35/43/33 
f 35/43/33 31/39/32 32/40/34 
f 19/23/19 18/22/18 34/42/31 
f 34/42/31 35/43/33 19/23/19 
s 1
f 37/3/35 38/4/36 39/1/37 
f 39/1/37 40/2/38 37/3/35 
f 38/4/36 41/5/39 42/6/40 
f 42/6/40 39/1/37 38/4/36 
f 41/5/39 43/7/41 44/8/42 
f 44/8/42 42/6/40 41/5/39 
f 45/9/43 46/10/44 47/11/45 
f 47/11/45 48/12/46 45/9/43 
f 48/12/46 49/14/47 50/13/48 
f 50/13/48 45/9/43 48/12/46 
f 50/13/48 49/14/47 51/15/49 
f 51/15/49 52/16/50 50/13/48 
f 40/2/38 39/1/37 48/12/46 
f 48/12/46 47/11/45 40/2/38 
f 42/6/40 49/14/47 48/12/46 
f 48/12/46 39/1/37 42/6/40 
f 44/8/42 51/15/49 49/14/47 
f 49/14/47 42/6/40 44/8/42 
s 3
f 38/17/17 37/18/17 17/19/17 
f 41/20/17 38/17/17 17/19/17 
f 43/21/17 41/20/17 17/19/17 
s 4
f 53/22/51 54/23/52 20/24/20 
s 1
f 55/26/53 46/10/44 45/9/43 
f 45/9/43 56/25/54 55/26/53 
f 56/25/54 45/9/43 50/13/48 
f 50/13/48 57/27/55 56/25/54 
f 52/16/50 58/28/56 57/27/55 
f 57/27/55 50/13/48 52/16/50 
s 5
f 56/31/20 59/32/20 60/29/20 
f 60/29/20 55/30/20 56/31/20 
f 57/34/20 61/33/20 59/32/20 
f 59/32/20 56/31/20 57/34/20 
f 61/33/20 57/34/20 58/35/20 
f 58/35/20 62/36/20 61/33/20 
s 6
f 63/37/57 64/38/58 60/29/58 
f 60/29/58 59/32/57 63/37/57 
f 61/33/59 65/39/59 63/37/57 
f 63/37/57 59/32/57 61/33/59 
f 66/40/60 65/39/59 61/33/59 
f 61/33/59 62/36/60 66/40/60 
s 4
f 67/41/61 64/38/61 63/37/62 
f 63/37/62 68/42/63 67/41/61 
f 69/43/64 68/42/63 63/37/62 
f 63/37/62 65/39/65 69/43/64 
f 65/39/65 66/40/66 70/44/66 
f 70/44/66 69/43/64 65/39/65 
f 68/42/63 69/43/64 54/23/52 
f 54/23/52 53/22/51 68/42/63 
s 1
f 71/3/67 72/4/68 73/1/69 
f 73/1/69 74/2/70 71/3/67 
f 73/1/69 72/4/68 75/5/71 
f 75/5/71 76/6/72 73/1/69 
f 76/6/72 75/5/71 37/7/35 
f 37/7/35 40/8/38 76/6/72 
f 77/12/73 78/9/74 79/10/75 
f 79/10/75 80/11/76 77/12/73 
f 77/12/73 81/14/77 82/13/78 
f 82/13/78 78/9/74 77/12/73 
f 81/14/77 47/15/45 46/16/44 
f 46/16/44 82/13/78 81/14/77 
f 80/11/76 74/2/70 73/1/69 
f 73/1/69 77/12/73 80/11/76 
f 76/6/72 81/14/77 77/12/73 
f 77/12/73 73/1/69 76/6/72 
f 81/14/77 76/6/72 40/8/38 
f 40/8/38 47/15/45 81/14/77 
s 3
f 72/17/17 71/18/17 17/19/17 
f 75/20/17 72/17/17 17/19/17 
f 37/21/17 75/20/17 17/19/17 
s 4
f 83/22/79 53/23/51 20/24/20 
s 1
f 84/26/80 79/10/75 78/9/74 
f 78/9/74 85/25/81 84/26/80 
f 86/27/82 85/25/81 78/9/74 
f 78/9/74 82/13/78 86/27/82 
f 82/13/78 46/16/44 55/28/53 
f 55/28/53 86/27/82 82/13/78 
s 5
f 85/31/20 87/32/20 88/29/20 
f 88/29/20 84/30/20 85/31/20 
f 89/33/20 87/32/20 85/31/20 
f 85/31/20 86/34/20 89/33/20 
f 86/34/20 55/35/20 60/36/20 
f 60/36/20 89/33/20 86/34/20 
s 6
f 87/32/83 90/37/83 91/38/84 
f 91/38/84 88/29/84 87/32/83 
f 90/37/83 87/32/83 89/33/85 
f 89/33/85 92/39/85 90/37/83 
f 89/33/85 60/36/58 64/40/58 
f 64/40/58 92/39/85 89/33/85 
s 4
f 93/41/86 91/38/86 90/37/87 
f 90/37/87 94/42/88 93/41/86 
f 95/43/89 94/42/88 90/37/87 
f 90/37/87 92/39/90 95/43/89 
f 64/40/61 67/44/61 95/43/89 
f 95/43/89 92/39/90 64/40/61 
f 53/23/51 83/22/79 94/42/88 
f 94/42/88 95/43/89 53/23/51 
s 1
f 44/2/42 43/3/41 96/4/91 
f 96/4/91 97/1/92 44/2/42 
f 98/5/93 99/6/94 97/1/92 
f 97/1/92 96/4/91 98/5/93 
f 99/6/94 98/5/93 3/7/3 
f 3/7/3 2/8/2 99/6/94 
f 52/10/50 51/11/49 100/12/95 
f 100/12/95 101/9/96 52/10/50 
f 102/14/97 103/13/98 101/9/96 
f 101/9/96 100/12/95 102/14/97 
f 102/14/97 11/15/11 10/16/10 
f 10/16/10 103/13/98 102/14/97 
f 44/2/42 97/1/92 100/12/95 
f 100/12/95 51/11/49 44/2/42 
f 100/12/95 97/1/92 99/6/94 
f 99/6/94 102/14/97 100/12/95 
f 2/8/2 11/15/11 102/14/97 
f 102/14/97 99/6/94 2/8/2 
s 3
f 96/17/17 43/18/17 17/19/17 
f 98/20/17 96/17/17 17/19/17 
f 3/21/17 98/20/17 17/19/17 
s 4
f 54/22/52 18/23/18 20/24/20 
s 1
f 52/10/50 101/9/96 104/25/99 
f 104/25/99 58/26/56 52/10/50 
f 104/25/99 101/9/96 103/13/98 
f 103/13/98 105/27/100 104/25/99 
f 103/13/98 10/16/10 22/28/22 
f 22/28/22 105/27/100 103/13/98 
s 5
f 106/32/20 62/29/20 58/30/20 
f 58/30/20 104/31/20 106/32/20 
f 106/32/20 104/31/20 105/34/20 
f 105/34/20 107/33/20 106/32/20 
f 105/34/20 22/35/20 25/36/20 
f 25/36/20 107/33/20 105/34/20 
s 6
f 62/29/60 106/32/101 108/37/101 
f 108/37/101 66/38/60 62/29/60 
f 109/39/102 108/37/101 106/32/101 
f 106/32/101 107/33/102 109/39/102 
f 30/40/26 109/39/102 107/33/102 
f 107/33/102 25/36/26 30/40/26 
s 4
f 108/37/103 110/42/104 70/41/66 
f 70/41/66 66/38/66 108/37/103 
f 110/42/104 108/37/103 109/39/105 
f 109/39/105 111/43/106 110/42/104 
f 30/40/29 33/44/29 111/43/106 
f 111/43/106 109/39/105 30/40/29 
f 18/23/18 54/22/52 110/42/104 
f 110/42/104 111/43/106 18/23/18 
s 1
f 112/4/107 113/1/108 8/2/8 
f 8/2/8 7/3/7 112/4/107 
f 112/4/107 114/5/109 115/6/110 
f 115/6/110 113/1/108 112/4/107 
f 71/7/67 74/8/70 115/6/110 
f 115/6/110 114/5/109 71/7/67 
f 16/10/16 15/11/15 116/12/111 
f 116/12/111 117/9/112 16/10/16 
f 116/12/111 118/14/113 119/13/114 
f 119/13/114 117/9/112 116/12/111 
f 118/14/113 80/15/76 79/16/75 
f 79/16/75 119/13/114 118/14/113 
f 113/1/108 116/12/111 15/11/15 
f 15/11/15 8/2/8 113/1/108 
f 116/12/111 113/1/108 115/6/110 
f 115/6/110 118/14/113 116/12/111 
f 115/6/110 74/8/70 80/15/76 
f 80/15/76 118/14/113 115/6/110 
s 3
f 112/17/17 7/18/17 17/19/17 
f 114/20/17 112/17/17 17/19/17 
f 71/21/17 114/20/17 17/19/17 
s 4
f 19/22/19 83/23/79 20/24/20 
s 1
f 16/10/16 117/9/112 120/25/115 
f 120/25/115 24/26/24 16/10/16 
f 119/13/114 121/27/116 120/25/115 
f 120/25/115 117/9/112 119/13/114 
f 79/16/75 84/28/80 121/27/116 
f 121/27/116 119/13/114 79/16/75 
s 5
f 122/32/20 28/29/20 24/30/20 
f 24/30/20 120/31/20 122/32/20 
f 122/32/20 120/31/20 121/34/20 
f 121/34/20 123/33/20 122/32/20 
f 88/36/20 123/33/20 121/34/20 
f 121/34/20 84/35/20 88/36/20 
s 6
f 28/29/28 122/32/117 124/37/117 
f 124/37/117 32/38/28 28/29/28 
f 123/33/118 125/39/118 124/37/117 
f 124/37/117 122/32/117 123/33/118 
f 88/36/84 91/40/84 125/39/118 
f 125/39/118 123/33/118 88/36/84 
s 4
f 32/38/34 124/37/119 126/42/120 
f 126/42/120 36/41/34 32/38/34 
f 125/39/121 127/43/122 126/42/120 
f 126/42/120 124/37/119 125/39/121 
f 127/43/122 125/39/121 91/40/86 
f 91/40/86 93/44/86 127/43/122 
f 19/22/19 126/42/120 127/43/122 
f 127/43/122 83/23/79 19/22/19 
# 240 faces

