# Blender 4.1.0
# www.blender.org
mtllib StreetLamp.mtl
o Cylinder
v 0.000000 0.000000 -0.036254
v 0.000000 2.000000 -0.036254
v 0.025635 0.000000 -0.025635
v 0.025635 2.000000 -0.025635
v 0.036254 0.000000 0.000000
v 0.036254 2.000000 0.000000
v 0.025635 0.000000 0.025635
v 0.025635 2.000000 0.025635
v 0.000000 0.000000 0.036254
v 0.000000 2.000000 0.036254
v -0.025635 0.000000 0.025635
v -0.025635 2.000000 0.025635
v -0.036254 0.000000 0.000000
v -0.036254 2.000000 0.000000
v -0.025635 0.000000 -0.025635
v -0.025635 2.000000 -0.025635
v 0.000000 1.984509 -0.036254
v 0.025635 1.984509 -0.025635
v 0.036254 1.984509 0.000000
v 0.025635 1.984509 0.025635
v 0.000000 1.984509 0.036254
v -0.025635 1.984509 0.025635
v -0.036254 1.984509 0.000000
v -0.025635 1.984509 -0.025635
v 0.594321 2.000000 0.000000
v 0.583702 2.000000 -0.025635
v 0.583702 2.000000 0.025635
v 0.583702 1.984509 -0.025635
v 0.594321 1.984509 0.000000
v 0.583702 1.984509 0.025635
v 0.596119 2.005662 0.000000
v 0.582803 2.005662 -0.032146
v 0.582803 2.005662 0.032146
v 0.582803 1.949748 -0.032146
v 0.596119 1.949748 0.000000
v 0.582803 1.949748 0.032146
v 0.711474 2.005662 0.000000
v 0.698158 2.005662 -0.032146
v 0.698158 2.005662 0.032146
v 0.698158 1.949748 -0.032146
v 0.711474 1.949748 0.000000
v 0.698158 1.949748 0.032146
v 0.666244 1.974668 -0.007299
v 0.678619 1.968821 -0.013486
v 0.686888 1.960071 -0.017621
v 0.689792 1.949749 -0.019072
v 0.686888 1.939427 -0.017621
v 0.678619 1.930676 -0.013486
v 0.666244 1.924830 -0.007299
v 0.672291 1.974668 -0.000000
v 0.689792 1.968821 -0.000000
v 0.701485 1.960071 -0.000000
v 0.705591 1.949749 -0.000000
v 0.701485 1.939427 -0.000000
v 0.689792 1.930676 -0.000000
v 0.672291 1.924830 -0.000000
v 0.666244 1.974668 0.007299
v 0.678619 1.968821 0.013486
v 0.686888 1.960071 0.017620
v 0.689792 1.949749 0.019072
v 0.686888 1.939427 0.017620
v 0.678619 1.930676 0.013486
v 0.666244 1.924830 0.007299
v 0.651647 1.974668 0.010322
v 0.651647 1.968821 0.019072
v 0.651647 1.960071 0.024919
v 0.651647 1.949749 0.026972
v 0.651647 1.939427 0.024919
v 0.651647 1.930676 0.019072
v 0.651647 1.924830 0.010322
v 0.637049 1.974668 0.007299
v 0.624674 1.968821 0.013486
v 0.616406 1.960071 0.017620
v 0.613502 1.949749 0.019072
v 0.616406 1.939427 0.017620
v 0.624674 1.930676 0.013486
v 0.637049 1.924830 0.007299
v 0.631003 1.974668 -0.000000
v 0.613502 1.968821 -0.000000
v 0.601808 1.960071 -0.000000
v 0.597702 1.949749 -0.000000
v 0.601808 1.939427 -0.000000
v 0.613502 1.930676 -0.000000
v 0.631003 1.924830 -0.000000
v 0.637049 1.974668 -0.007299
v 0.624674 1.968821 -0.013486
v 0.616406 1.960071 -0.017621
v 0.613502 1.949749 -0.019072
v 0.616406 1.939427 -0.017621
v 0.624674 1.930676 -0.013486
v 0.637049 1.924830 -0.007299
v 0.651647 1.922777 -0.000000
v 0.651647 1.976721 -0.000000
v 0.651647 1.974668 -0.010322
v 0.651647 1.968821 -0.019072
v 0.651647 1.960071 -0.024919
v 0.651647 1.949749 -0.026972
v 0.651647 1.939427 -0.024919
v 0.651647 1.930676 -0.019072
v 0.651647 1.924830 -0.010322
v 0.147867 1.994509 0.000000
v 0.259480 1.999509 0.000000
v 0.371094 1.999509 0.000000
v 0.482707 1.994509 0.000000
v 0.472089 1.994509 0.025635
v 0.360475 1.999509 0.025635
v 0.248862 1.999509 0.025635
v 0.137249 1.994509 0.025635
v 0.137249 1.994509 -0.025635
v 0.248862 1.999509 -0.025635
v 0.360475 1.999509 -0.025635
v 0.472089 1.994509 -0.025635
v 0.147867 2.010000 0.000000
v 0.259480 2.015000 0.000000
v 0.371094 2.015000 0.000000
v 0.482707 2.010000 0.000000
v 0.472089 2.010000 -0.025635
v 0.360475 2.015000 -0.025635
v 0.248862 2.015000 -0.025635
v 0.137249 2.010000 -0.025635
v 0.472089 2.010000 0.025635
v 0.360475 2.015000 0.025635
v 0.248862 2.015000 0.025635
v 0.137249 2.010000 0.025635
vn 0.3827 -0.0000 -0.9239
vn -0.0892 -0.9953 0.0369
vn -0.0892 -0.9953 -0.0369
vn 0.3827 -0.0000 0.9239
vn -0.3827 -0.0000 0.9239
vn -0.9239 -0.0000 0.3827
vn -0.0000 1.0000 -0.0000
vn -0.9239 -0.0000 -0.3827
vn -0.3827 -0.0000 -0.9239
vn -0.0000 -1.0000 -0.0000
vn 0.9239 -0.0000 0.3827
vn 0.9239 -0.0000 -0.3827
vn -0.9906 -0.0000 -0.1368
vn -0.9228 -0.0477 0.3822
vn 0.0892 0.9953 -0.0369
vn -0.0000 -0.0000 1.0000
vn -0.0000 -0.0000 -1.0000
vn 0.0892 0.9953 0.0369
vn -0.9906 -0.0000 0.1368
vn -0.8865 0.2815 0.3672
vn -0.9228 -0.0477 -0.3823
vn -0.8865 0.2815 -0.3672
vn -0.0000 -0.6947 -0.7193
vn 0.1477 -0.9357 -0.3203
vn -0.0000 -0.9148 -0.4039
vn 0.4609 -0.4604 -0.7587
vn -0.0000 -0.3740 -0.9274
vn -0.0000 0.3740 -0.9274
vn 0.3023 0.7680 -0.5647
vn 0.4609 0.4604 -0.7587
vn -0.0000 0.9148 -0.4039
vn 0.1477 0.9357 -0.3203
vn 0.3023 -0.7680 -0.5647
vn 0.5422 -0.0000 -0.8402
vn -0.0000 0.6947 -0.7193
vn 0.2548 0.9670 -0.0000
vn 0.2548 -0.9670 -0.0000
vn 0.5143 -0.8576 -0.0000
vn 0.8292 0.5589 -0.0000
vn 1.0000 -0.0000 -0.0000
vn 0.5143 0.8576 -0.0000
vn 0.8292 -0.5589 -0.0000
vn 0.4609 -0.4604 0.7587
vn 0.3023 -0.7680 0.5647
vn 0.5422 -0.0000 0.8402
vn 0.3023 0.7680 0.5647
vn 0.1477 -0.9357 0.3203
vn 0.4609 0.4604 0.7587
vn 0.1477 0.9357 0.3203
vn -0.0000 -0.6947 0.7193
vn -0.0000 -0.9148 0.4039
vn -0.0000 -0.3740 0.9274
vn -0.0000 0.3740 0.9274
vn -0.0000 0.9148 0.4039
vn -0.0000 0.6947 0.7193
vn -0.4609 -0.4604 0.7587
vn -0.3023 0.7680 0.5647
vn -0.4609 0.4604 0.7587
vn -0.1477 0.9357 0.3203
vn -0.1477 -0.9357 0.3203
vn -0.3023 -0.7680 0.5647
vn -0.5422 -0.0000 0.8402
vn -0.2548 -0.9670 -0.0000
vn -0.5143 -0.8576 -0.0000
vn -0.8292 0.5589 -0.0000
vn -1.0000 -0.0000 -0.0000
vn -0.2548 0.9670 -0.0000
vn -0.5143 0.8576 -0.0000
vn -0.8292 -0.5589 -0.0000
vn -0.5422 -0.0000 -0.8402
vn -0.3023 0.7680 -0.5647
vn -0.3023 -0.7680 -0.5647
vn -0.1477 -0.9357 -0.3203
vn -0.4609 -0.4604 -0.7587
vn -0.4609 0.4604 -0.7587
vn -0.1477 0.9357 -0.3203
vn -0.0892 0.9953 -0.0369
vn -0.0447 0.9988 -0.0185
vn 0.0447 0.9988 0.0185
vn -0.0892 0.9953 0.0369
vn -0.0447 0.9988 0.0185
vn 0.0447 0.9988 -0.0185
vn 0.0892 -0.9953 0.0369
vn 0.0447 -0.9988 0.0185
vn -0.0447 -0.9988 -0.0185
vn 0.0892 -0.9953 -0.0369
vn 0.0447 -0.9988 -0.0185
vn -0.0447 -0.9988 0.0185
vn -0.9228 -0.0477 0.3823
vn -0.9228 -0.0477 -0.3822
vt 0.732751 0.852098
vt 0.728650 0.846115
vt 0.732751 0.846115
vt 0.718750 0.846115
vt 0.708850 0.846115
vt 0.708850 0.852098
vt 0.704749 0.846115
vt 0.704749 0.852098
vt 0.718750 0.852098
vt 0.728650 0.852098
vt 0.708850 0.079726
vt 0.728650 0.079726
vt 0.732751 0.079726
vt 0.718750 0.079726
vt 0.704749 0.079726
vt 0.706335 0.854285
vt 0.718750 0.832691
vt 0.728650 0.846115
vt 0.718750 0.854285
vt 0.706335 0.832691
vt 0.731164 0.854285
vt 0.731164 0.832691
vt 0.127724 0.493551
vt 0.101526 0.428146
vt 0.101526 0.493551
vt 0.213179 0.493551
vt 0.166929 0.335649
vt 0.166929 0.493551
vt 0.259426 0.493551
vt 0.298634 0.372698
vt 0.259426 0.335649
vt 0.324831 0.493551
vt 0.334031 0.493551
vt 0.324831 0.428146
vt 0.092328 0.493551
vt 0.127724 0.372698
vt 0.213179 0.322640
vt 0.298634 0.493551
vt 0.324831 0.401054
vt 0.101526 0.401054
vt 0.127724 0.322640
vt 0.259426 0.270245
vt 0.213179 0.251847
vt 0.298634 0.322640
vt 0.166929 0.270245
vt 0.166929 0.651451
vt 0.298634 0.614402
vt 0.259426 0.651451
vt 0.324831 0.558955
vt 0.101526 0.558955
vt 0.127724 0.614402
vt 0.213179 0.664460
vt 0.101526 0.586047
vt 0.127724 0.664460
vt 0.259426 0.716855
vt 0.213179 0.735254
vt 0.324831 0.586047
vt 0.298634 0.664460
vt 0.166929 0.716855
vt 0.708850 0.852098
vt 0.708850 0.852098
vt 0.718750 0.852098
vt 0.728650 0.852098
vt 0.708850 0.846115
vt 0.728650 0.852098
s 0
usemtl StreetLamp
f 2/1/1 18/2/1 17/3/1
f 104/4/2 28/2/2 29/4/2
f 104/4/3 30/5/3 105/5/3
f 8/6/4 21/7/4 20/5/4
f 10/8/5 22/5/5 21/7/5
f 12/6/6 23/4/6 22/5/6
f 14/9/7 10/8/7 6/9/7
f 14/9/8 24/2/8 23/4/8
f 16/10/9 17/3/9 24/2/9
f 7/11/10 11/11/10 15/12/10
f 24/2/9 1/13/9 15/12/9
f 23/4/8 15/12/8 13/14/8
f 22/5/6 13/14/6 11/11/6
f 21/7/5 11/11/5 9/15/5
f 20/5/4 9/15/4 7/11/4
f 19/4/11 7/11/11 5/14/11
f 18/2/12 5/14/12 3/12/12
f 17/3/1 3/12/1 1/13/1
f 30/5/13 33/16/13 27/6/13
f 28/2/14 35/17/14 29/4/14
f 116/9/15 26/10/15 117/10/15
f 105/5/16 27/6/16 121/6/16
f 112/18/17 26/10/17 28/2/17
f 116/9/18 27/6/18 25/9/18
f 31/19/7 39/16/7 37/19/7
f 35/17/10 42/20/10 36/20/10
f 28/2/19 32/21/19 34/22/19
f 26/10/20 31/19/20 32/21/20
f 30/5/21 35/17/21 36/20/21
f 27/6/22 31/19/22 25/9/22
f 38/21/12 41/17/12 40/22/12
f 37/19/11 42/20/11 41/17/11
f 35/17/10 40/22/10 41/17/10
f 36/20/16 39/16/16 33/16/16
f 32/21/17 40/22/17 34/22/17
f 31/19/7 38/21/7 32/21/7
s 1
f 99/23/23 49/24/24 100/25/25
f 97/26/17 47/27/26 98/28/27
f 96/29/28 44/30/29 45/31/30
f 94/32/31 93/33/7 43/34/32
f 92/35/10 100/25/25 49/24/24
f 98/28/27 48/36/33 99/23/23
f 97/26/17 45/31/30 46/37/34
f 95/38/35 43/34/32 44/30/29
f 43/34/32 93/33/7 50/39/36
f 92/35/10 49/24/24 56/40/37
f 47/27/26 55/41/38 48/36/33
f 46/37/34 52/42/39 53/43/40
f 44/30/29 50/39/36 51/44/41
f 48/36/33 56/40/37 49/24/24
f 46/37/34 54/45/42 47/27/26
f 45/31/30 51/44/41 52/42/39
f 55/41/38 61/27/43 62/36/44
f 52/42/39 60/37/45 53/43/40
f 50/39/36 58/30/46 51/44/41
f 56/40/37 62/36/44 63/24/47
f 54/45/42 60/37/45 61/27/43
f 51/44/41 59/31/48 52/42/39
f 50/39/36 93/33/7 57/34/49
f 92/35/10 56/40/37 63/24/47
f 63/24/47 69/23/50 70/25/51
f 61/27/43 67/26/16 68/28/52
f 58/30/46 66/29/53 59/31/48
f 57/34/49 93/33/7 64/32/54
f 92/35/10 63/24/47 70/25/51
f 62/36/44 68/28/52 69/23/50
f 59/31/48 67/26/16 60/37/45
f 57/34/49 65/38/55 58/30/46
f 67/26/16 75/46/56 68/28/52
f 66/29/53 72/47/57 73/48/58
f 64/32/54 93/33/7 71/49/59
f 92/35/10 70/25/51 77/50/60
f 68/28/52 76/51/61 69/23/50
f 67/26/16 73/48/58 74/52/62
f 65/38/55 71/49/59 72/47/57
f 69/23/50 77/50/60 70/25/51
f 92/35/10 77/50/60 84/53/63
f 75/46/56 83/54/64 76/51/61
f 74/52/62 80/55/65 81/56/66
f 72/47/57 78/57/67 79/58/68
f 76/51/61 84/53/63 77/50/60
f 74/52/62 82/59/69 75/46/56
f 73/48/58 79/58/68 80/55/65
f 71/49/59 93/33/7 78/57/67
f 80/55/65 88/52/70 81/56/66
f 78/57/67 86/47/71 79/58/68
f 84/53/63 90/51/72 91/50/73
f 82/59/69 88/52/70 89/46/74
f 79/58/68 87/48/75 80/55/65
f 78/57/67 93/33/7 85/49/76
f 92/35/10 84/53/63 91/50/73
f 83/54/64 89/46/74 90/51/72
f 91/50/73 99/23/23 100/25/25
f 89/46/74 97/26/17 98/28/27
f 86/47/71 96/29/28 87/48/75
f 85/49/76 93/33/7 94/32/31
f 92/35/10 91/50/73 100/25/25
f 90/51/72 98/28/27 99/23/23
f 87/48/75 97/26/17 88/52/70
f 85/49/76 95/38/35 86/47/71
s 0
f 6/9/77 124/60/77 113/9/77
f 113/9/78 123/61/78 114/9/78
f 114/9/7 122/6/7 115/62/7
f 115/62/79 121/6/79 116/9/79
f 4/10/17 109/2/17 18/2/17
f 120/63/17 110/2/17 109/2/17
f 110/2/17 118/10/17 111/18/17
f 111/18/17 117/10/17 112/18/17
f 8/6/16 108/64/16 124/60/16
f 124/60/16 107/64/16 123/61/16
f 107/64/16 122/6/16 123/61/16
f 106/5/16 121/6/16 122/6/16
f 6/9/80 120/63/80 4/10/80
f 113/9/81 119/65/81 120/63/81
f 114/9/7 118/10/7 119/65/7
f 115/62/82 117/10/82 118/10/82
f 19/4/83 108/64/83 20/5/83
f 101/4/84 107/64/84 108/64/84
f 102/4/10 106/5/10 107/64/10
f 103/4/85 105/5/85 106/5/85
f 19/4/86 109/2/86 101/4/86
f 101/4/87 110/2/87 102/4/87
f 102/4/10 111/18/10 103/4/10
f 103/4/88 112/18/88 104/4/88
f 2/1/1 4/10/1 18/2/1
f 104/4/2 112/18/2 28/2/2
f 104/4/3 29/4/3 30/5/3
f 8/6/4 10/8/4 21/7/4
f 10/8/5 12/6/5 22/5/5
f 12/6/6 14/9/6 23/4/6
f 6/9/7 4/10/7 2/1/7
f 2/1/7 16/10/7 14/9/7
f 14/9/7 12/6/7 10/8/7
f 10/8/7 8/6/7 6/9/7
f 6/9/7 2/1/7 14/9/7
f 14/9/8 16/10/8 24/2/8
f 16/10/9 2/1/9 17/3/9
f 15/12/10 1/13/10 3/12/10
f 3/12/10 5/14/10 7/11/10
f 7/11/10 9/15/10 11/11/10
f 11/11/10 13/14/10 15/12/10
f 15/12/10 3/12/10 7/11/10
f 24/2/9 17/3/9 1/13/9
f 23/4/8 24/2/8 15/12/8
f 22/5/6 23/4/6 13/14/6
f 21/7/5 22/5/5 11/11/5
f 20/5/4 21/7/4 9/15/4
f 19/4/11 20/5/11 7/11/11
f 18/2/12 19/4/12 5/14/12
f 17/3/1 18/2/1 3/12/1
f 30/5/13 36/20/13 33/16/13
f 28/2/89 34/22/89 35/17/89
f 116/9/15 25/9/15 26/10/15
f 105/5/16 30/5/16 27/6/16
f 112/18/17 117/10/17 26/10/17
f 116/9/18 121/6/18 27/6/18
f 31/19/7 33/16/7 39/16/7
f 35/17/10 41/17/10 42/20/10
f 28/2/19 26/10/19 32/21/19
f 26/10/20 25/9/20 31/19/20
f 30/5/90 29/4/90 35/17/90
f 27/6/22 33/16/22 31/19/22
f 38/21/12 37/19/12 41/17/12
f 37/19/11 39/16/11 42/20/11
f 35/17/10 34/22/10 40/22/10
f 36/20/16 42/20/16 39/16/16
f 32/21/17 38/21/17 40/22/17
f 31/19/7 37/19/7 38/21/7
s 1
f 99/23/23 48/36/33 49/24/24
f 97/26/17 46/37/34 47/27/26
f 96/29/28 95/38/35 44/30/29
f 98/28/27 47/27/26 48/36/33
f 97/26/17 96/29/28 45/31/30
f 95/38/35 94/32/31 43/34/32
f 47/27/26 54/45/42 55/41/38
f 46/37/34 45/31/30 52/42/39
f 44/30/29 43/34/32 50/39/36
f 48/36/33 55/41/38 56/40/37
f 46/37/34 53/43/40 54/45/42
f 45/31/30 44/30/29 51/44/41
f 55/41/38 54/45/42 61/27/43
f 52/42/39 59/31/48 60/37/45
f 50/39/36 57/34/49 58/30/46
f 56/40/37 55/41/38 62/36/44
f 54/45/42 53/43/40 60/37/45
f 51/44/41 58/30/46 59/31/48
f 63/24/47 62/36/44 69/23/50
f 61/27/43 60/37/45 67/26/16
f 58/30/46 65/38/55 66/29/53
f 62/36/44 61/27/43 68/28/52
f 59/31/48 66/29/53 67/26/16
f 57/34/49 64/32/54 65/38/55
f 67/26/16 74/52/62 75/46/56
f 66/29/53 65/38/55 72/47/57
f 68/28/52 75/46/56 76/51/61
f 67/26/16 66/29/53 73/48/58
f 65/38/55 64/32/54 71/49/59
f 69/23/50 76/51/61 77/50/60
f 75/46/56 82/59/69 83/54/64
f 74/52/62 73/48/58 80/55/65
f 72/47/57 71/49/59 78/57/67
f 76/51/61 83/54/64 84/53/63
f 74/52/62 81/56/66 82/59/69
f 73/48/58 72/47/57 79/58/68
f 80/55/65 87/48/75 88/52/70
f 78/57/67 85/49/76 86/47/71
f 84/53/63 83/54/64 90/51/72
f 82/59/69 81/56/66 88/52/70
f 79/58/68 86/47/71 87/48/75
f 83/54/64 82/59/69 89/46/74
f 91/50/73 90/51/72 99/23/23
f 89/46/74 88/52/70 97/26/17
f 86/47/71 95/38/35 96/29/28
f 90/51/72 89/46/74 98/28/27
f 87/48/75 96/29/28 97/26/17
f 85/49/76 94/32/31 95/38/35
s 0
f 6/9/77 8/6/77 124/60/77
f 113/9/78 124/60/78 123/61/78
f 114/9/7 123/61/7 122/6/7
f 115/62/79 122/6/79 121/6/79
f 4/10/17 120/63/17 109/2/17
f 120/63/17 119/65/17 110/2/17
f 110/2/17 119/65/17 118/10/17
f 111/18/17 118/10/17 117/10/17
f 8/6/16 20/5/16 108/64/16
f 124/60/16 108/64/16 107/64/16
f 107/64/16 106/5/16 122/6/16
f 106/5/16 105/5/16 121/6/16
f 6/9/80 113/9/80 120/63/80
f 113/9/81 114/9/81 119/65/81
f 114/9/7 115/62/7 118/10/7
f 115/62/82 116/9/82 117/10/82
f 19/4/83 101/4/83 108/64/83
f 101/4/84 102/4/84 107/64/84
f 102/4/10 103/4/10 106/5/10
f 103/4/85 104/4/85 105/5/85
f 19/4/86 18/2/86 109/2/86
f 101/4/87 109/2/87 110/2/87
f 102/4/10 110/2/10 111/18/10
f 103/4/88 111/18/88 112/18/88
