# Blender 4.1.0
# www.blender.org
mtllib Poster2.mtl
o Plane.001
v -1.417023 -1.599825 0.115882
v 1.417023 -1.599825 0.115882
v -1.417023 1.364693 0.000000
v 1.417023 1.364693 0.000000
v -1.417023 -1.205849 -0.000000
v 1.417023 -1.205849 -0.000000
v -1.417023 -1.407455 0.039022
v 1.417023 -1.407455 0.039022
v -1.417023 -1.399779 0.088307
v -1.417023 -1.592149 0.165166
v 1.417023 -1.592149 0.165166
v 1.417023 -1.198173 0.049285
v 1.417023 1.372370 0.049285
v -1.417023 1.372370 0.049285
v -1.417023 -1.198173 0.049285
v 1.417023 -1.399779 0.088307
vn -0.0000 -0.0000 -1.0000
vn -0.0000 -0.1900 -0.9818
vn -0.0000 -0.3710 -0.9286
vn -0.0000 -0.0000 1.0000
vn -0.0000 0.1900 0.9818
vn -0.0000 0.3710 0.9286
vn -1.0000 -0.0000 -0.0000
vn 1.0000 -0.0000 -0.0000
vn -0.0000 0.9881 -0.1539
vn -0.0000 -0.9881 0.1539
vt 0.980146 0.668600
vt 0.980146 0.372252
vt 0.975648 0.349010
vt 0.966787 0.326832
vt 0.948200 0.145239
vt 0.051800 0.958294
vt 0.051800 0.145239
vt 0.948200 0.081471
vt 0.051800 0.081471
vt 0.948200 0.020625
vt 0.051800 0.020625
vt 0.974465 0.373137
vt 0.969966 0.349895
vt 0.974465 0.669485
vt 0.961105 0.327717
vt 0.948200 0.958294
s 0
usemtl Poster.001
f 3/1/1 6/2/1 5/2/1
f 5/2/2 8/3/2 7/3/2
f 7/3/3 2/4/3 1/4/3
f 12/5/4 14/6/4 15/7/4
f 16/8/5 15/7/5 9/9/5
f 11/10/6 9/9/6 10/11/6
f 7/3/7 15/12/7 5/2/7
f 8/3/8 12/12/8 16/13/8
f 3/1/9 13/14/9 4/1/9
f 2/4/10 10/15/10 1/4/10
f 2/4/8 16/13/8 11/15/8
f 3/1/7 15/12/7 14/14/7
f 4/1/8 12/12/8 6/2/8
f 1/4/7 9/13/7 7/3/7
f 3/1/1 4/1/1 6/2/1
f 5/2/2 6/2/2 8/3/2
f 7/3/3 8/3/3 2/4/3
f 12/5/4 13/16/4 14/6/4
f 16/8/5 12/5/5 15/7/5
f 11/10/6 16/8/6 9/9/6
f 7/3/7 9/13/7 15/12/7
f 8/3/8 6/2/8 12/12/8
f 3/1/9 14/14/9 13/14/9
f 2/4/10 11/15/10 10/15/10
f 2/4/8 8/3/8 16/13/8
f 3/1/7 5/2/7 15/12/7
f 4/1/8 13/14/8 12/12/8
f 1/4/7 10/15/7 9/13/7
