# Blender 4.1.0
# www.blender.org
mtllib NaveCierra.mtl
o Circle
v -0.156434 0.000000 -0.987688
v -0.453991 0.000000 -0.891007
v -0.707107 0.000000 -0.707107
v -0.891007 0.000000 -0.453990
v -0.987688 0.000000 -0.156434
v -0.987688 0.000000 0.156434
v -0.891007 0.000000 0.453991
v -0.707107 0.000000 0.707107
v -0.453990 0.000000 0.891007
v -0.156434 0.000000 0.987688
v 0.156434 0.000000 0.987688
v 0.453991 0.000000 0.891007
v 0.707107 0.000000 0.707107
v 0.891007 0.000000 0.453990
v 0.987688 0.000000 0.156434
v 0.987688 0.000000 -0.156434
v 0.891007 0.000000 -0.453991
v 0.707107 0.000000 -0.707107
v 0.453990 0.000000 -0.891007
v 0.156434 0.000000 -0.987688
v -0.162975 0.000000 -1.002149
v -0.457199 0.000000 -0.906550
v -0.720898 0.000000 -0.714961
v -0.902738 0.000000 -0.464680
v -1.003462 0.000000 -0.154682
v -1.003462 0.000000 0.154682
v -0.902738 0.000000 0.464680
v -0.720898 0.000000 0.714961
v -0.457199 0.000000 0.906550
v -0.162975 0.000000 1.002149
v 0.162975 0.000000 1.002149
v 0.457199 0.000000 0.906550
v 0.720898 0.000000 0.714961
v 0.902738 0.000000 0.464680
v 1.003462 0.000000 0.154682
v 1.003462 0.000000 -0.154682
v 0.902738 0.000000 -0.464680
v 0.720898 0.000000 -0.714961
v 0.457199 0.000000 -0.906550
v 0.162975 0.000000 -1.002149
v -0.102606 0.011015 -1.129871
v -0.581111 0.011015 -0.974395
v -0.747131 0.011015 -0.853774
v -1.042864 0.011015 -0.446733
v -1.106278 0.011015 -0.251565
v -1.106278 0.011015 0.251565
v -1.042863 0.011015 0.446733
v -0.747131 0.011015 0.853774
v -0.581111 0.011015 0.974395
v -0.102606 0.011015 1.129870
v 0.102606 0.011015 1.129871
v 0.581111 0.011015 0.974395
v 0.747131 0.011015 0.853774
v 1.042864 0.011015 0.446733
v 1.106278 0.011015 0.251565
v 1.106278 0.011015 -0.251565
v 1.042863 0.011015 -0.446733
v 0.747131 0.011015 -0.853774
v 0.581111 0.011015 -0.974395
v 0.102606 0.011015 -1.129870
v -0.252404 0.011015 -1.127243
v -0.458378 0.011015 -1.060318
v -0.866776 0.011015 -0.763599
v -0.994075 0.011015 -0.588388
v -1.150069 0.011015 -0.108287
v -1.150069 0.011015 0.108287
v -0.994075 0.011015 0.588388
v -0.866776 0.011015 0.763599
v -0.458378 0.011015 1.060318
v -0.252404 0.011015 1.127243
v 0.252404 0.011015 1.127243
v 0.458378 0.011015 1.060318
v 0.866776 0.011015 0.763599
v 0.994075 0.011015 0.588388
v 1.150069 0.011015 0.108287
v 1.150069 0.011015 -0.108287
v 0.994075 0.011015 -0.588388
v 0.866776 0.011015 -0.763599
v 0.458378 0.011015 -1.060318
v 0.252404 0.011015 -1.127243
v -0.197569 0.031472 -0.387751
v -0.068078 0.031472 -0.429825
v -0.307721 0.031472 -0.307721
v -0.387751 0.031472 -0.197569
v -0.429825 0.031472 -0.068078
v -0.429825 0.031472 0.068078
v -0.387751 0.031472 0.197569
v -0.307721 0.031472 0.307721
v -0.197569 0.031472 0.387751
v -0.068078 0.031472 0.429825
v 0.068078 0.031472 0.429825
v 0.197569 0.031472 0.387751
v 0.307721 0.031472 0.307721
v 0.387751 0.031472 0.197569
v 0.429825 0.031472 0.068078
v 0.429825 0.031472 -0.068078
v 0.387751 0.031472 -0.197569
v 0.307721 0.031472 -0.307721
v 0.197569 0.031472 -0.387751
v 0.068078 0.031472 -0.429825
v -0.457199 0.031472 -0.906550
v -0.162975 0.031472 -1.002149
v -0.902738 0.031472 -0.464680
v -0.720898 0.031472 -0.714961
v -1.003462 0.031472 0.154682
v -1.003462 0.031472 -0.154682
v -0.720898 0.031472 0.714961
v -0.902738 0.031472 0.464680
v -0.162975 0.031472 1.002149
v -0.457199 0.031472 0.906550
v 0.457199 0.031472 0.906550
v 0.162975 0.031472 1.002149
v 0.902738 0.031472 0.464680
v 0.720898 0.031472 0.714961
v 1.003462 0.031472 -0.154682
v 1.003462 0.031472 0.154682
v 0.720898 0.031472 -0.714961
v 0.902738 0.031472 -0.464680
v 0.162975 0.031472 -1.002149
v 0.457199 0.031472 -0.906550
v -0.581111 0.020457 -0.974395
v -0.102606 0.020457 -1.129871
v -1.042864 0.020457 -0.446733
v -0.747131 0.020457 -0.853774
v -1.106278 0.020457 0.251565
v -1.106278 0.020457 -0.251565
v -0.747131 0.020457 0.853774
v -1.042863 0.020457 0.446733
v -0.102606 0.020457 1.129870
v -0.581111 0.020457 0.974395
v 0.581111 0.020457 0.974395
v 0.102606 0.020457 1.129871
v 1.042864 0.020457 0.446733
v 0.747131 0.020457 0.853774
v 1.106278 0.020457 -0.251565
v 1.106278 0.020457 0.251565
v 0.747131 0.020457 -0.853774
v 1.042863 0.020457 -0.446733
v 0.102606 0.020457 -1.129870
v 0.581111 0.020457 -0.974395
v -0.458378 0.020457 -1.060318
v -0.252404 0.020457 -1.127243
v -0.994075 0.020457 -0.588388
v -0.866776 0.020457 -0.763599
v -1.150069 0.020457 0.108287
v -1.150069 0.020457 -0.108287
v -0.866776 0.020457 0.763599
v -0.994075 0.020457 0.588388
v -0.252404 0.020457 1.127243
v -0.458378 0.020457 1.060318
v 0.458378 0.020457 1.060318
v 0.252404 0.020457 1.127243
v 0.994075 0.020457 0.588388
v 0.866776 0.020457 0.763599
v 1.150069 0.020457 -0.108287
v 1.150069 0.020457 0.108287
v 0.866776 0.020457 -0.763599
v 0.994075 0.020457 -0.588388
v 0.252404 0.020457 -1.127243
v 0.458378 0.020457 -1.060318
v -0.453991 0.031472 -0.891007
v -0.156434 0.031472 -0.987688
v -0.707107 0.031472 -0.707107
v -0.891007 0.031472 -0.453990
v -0.967296 0.031472 -0.026512
v -0.967296 0.031472 0.026512
v -0.891007 0.031472 0.453991
v -0.707107 0.031472 0.707107
v -0.453990 0.031472 0.891007
v -0.156434 0.031472 0.987688
v 0.156434 0.031472 0.987688
v 0.453991 0.031472 0.891007
v 0.707107 0.031472 0.707107
v 0.891007 0.031472 0.453990
v 0.987688 0.031472 0.156434
v 0.987688 0.031472 -0.156434
v 0.891007 0.031472 -0.453991
v 0.707107 0.031472 -0.707107
v 0.453990 0.031472 -0.891007
v 0.156434 0.031472 -0.987688
v -0.987688 0.031472 0.156434
v -0.987688 0.031472 -0.156434
v -0.510502 0.031472 0.024083
v -0.510502 0.031472 -0.024083
vn -0.0000 -1.0000 -0.0000
vn 0.0862 -0.9943 -0.0626
vn 0.0329 -0.9943 0.1013
vn -0.1065 -0.9943 -0.0000
vn 0.0329 -0.9943 -0.1013
vn 0.0862 -0.9943 0.0626
vn -0.0862 -0.9943 0.0626
vn -0.0329 -0.9943 -0.1013
vn 0.1065 -0.9943 -0.0000
vn -0.0329 -0.9943 0.1013
vn -0.0862 -0.9943 -0.0626
vn -0.0000 1.0000 -0.0000
vn 0.0862 0.9943 -0.0626
vn 0.0329 0.9943 0.1013
vn -0.1065 0.9943 -0.0000
vn 0.0329 0.9943 -0.1013
vn 0.0862 0.9943 0.0626
vn -0.0862 0.9943 0.0626
vn -0.0329 0.9943 -0.1013
vn 0.1065 0.9943 -0.0000
vn -0.0329 0.9943 0.1013
vn -0.0862 0.9943 -0.0626
vn 0.8090 -0.0000 -0.5878
vn 0.4802 -0.0000 -0.8771
vn -0.6735 -0.0000 0.7392
vn 0.3090 -0.0000 -0.9511
vn -0.9041 -0.0000 -0.4273
vn 0.4949 -0.0000 -0.8690
vn 0.5878 -0.0000 0.8090
vn -0.9563 -0.0000 0.2923
vn 0.6858 -0.0000 0.7278
vn -0.4949 -0.0000 -0.8690
vn -0.9563 -0.0000 -0.2923
vn 0.6858 -0.0000 -0.7278
vn 0.6735 -0.0000 0.7392
vn 0.9511 -0.0000 0.3090
vn 0.0175 -0.0000 -0.9998
vn -0.9041 -0.0000 0.4273
vn 0.4949 -0.0000 0.8690
vn 0.5735 -0.0000 -0.8192
vn 0.4803 -0.0000 0.8771
vn -0.6735 -0.0000 -0.7392
vn 0.9511 -0.0000 -0.3090
vn 0.9455 -0.0000 0.3256
vn -0.1270 -0.0000 -0.9919
vn 0.9794 -0.0000 -0.2021
vn 0.6019 -0.0000 0.7986
vn -0.9826 -0.0000 0.1857
vn -0.9111 -0.0000 0.4121
vn 0.5878 -0.0000 -0.8090
vn -0.6019 -0.0000 0.7986
vn 0.9826 -0.0000 0.1857
vn -0.9794 -0.0000 0.2021
vn -0.9455 -0.0000 0.3256
vn 0.1270 -0.0000 -0.9919
vn 0.9111 -0.0000 -0.4121
vn -0.0000 -0.0000 -1.0000
vn -0.5735 -0.0000 -0.8192
vn -0.4802 -0.0000 0.8771
vn 0.1104 -0.0000 -0.9939
vn -0.0175 -0.0000 -0.9998
vn 0.9041 -0.0000 0.4273
vn 0.1104 -0.0000 0.9939
vn 0.9563 -0.0000 -0.2923
vn -0.6858 -0.0000 -0.7278
vn -0.1104 -0.0000 0.9939
vn 0.9563 -0.0000 0.2923
vn -0.6858 -0.0000 0.7278
vn -0.1104 -0.0000 -0.9939
vn -0.0175 -0.0000 0.9998
vn 0.9041 -0.0000 -0.4273
vn -0.5735 -0.0000 0.8192
vn -0.4803 -0.0000 -0.8771
vn -0.9455 -0.0000 -0.3256
vn 0.1270 -0.0000 0.9919
vn -0.6019 -0.0000 -0.7986
vn 0.9826 -0.0000 -0.1857
vn -0.5878 -0.0000 -0.8090
vn 0.6019 -0.0000 -0.7986
vn -0.3090 -0.0000 -0.9511
vn 0.9455 -0.0000 -0.3256
vn -0.8090 -0.0000 -0.5878
vn -0.9511 -0.0000 -0.3090
vn 0.5735 -0.0000 0.8192
vn -1.0000 -0.0000 -0.0000
vn -0.9111 -0.0000 -0.4121
vn 0.0175 -0.0000 0.9998
vn -0.8090 -0.0000 0.5878
vn 0.9794 -0.0000 0.2021
vn -0.9511 -0.0000 0.3090
vn -0.3090 -0.0000 0.9511
vn 0.9111 -0.0000 0.4121
vn 0.3090 -0.0000 0.9511
vn -0.9794 -0.0000 -0.2021
vn -0.5878 -0.0000 0.8090
vn 0.8090 -0.0000 0.5878
vn -0.9826 -0.0000 -0.1857
vn 0.6735 -0.0000 -0.7392
vn 1.0000 -0.0000 -0.0000
vn -0.1270 -0.0000 0.9919
vn -0.4949 -0.0000 0.8690
vn -0.0000 -0.0000 1.0000
vt 0.039331 0.773535
vt 0.039331 0.940968
vt 0.039331 0.924579
vt 0.039331 0.847618
vt 0.039331 0.820814
vt 0.039331 0.821099
vt 0.039331 0.875502
vt 0.039331 0.902306
vt 0.039331 0.902020
vt 0.039331 0.781106
vt 0.039331 0.798541
vt 0.039331 0.782152
vt 0.039331 0.942014
vt 0.039331 0.821099
vt 0.039331 0.902306
vt 0.039331 0.875502
vt 0.039331 0.902020
vt 0.039331 0.772129
vt 0.039331 0.950990
vt 0.039331 0.949585
vt 0.039331 0.797312
vt 0.040313 0.768618
vt 0.040313 0.809770
vt 0.039331 0.847035
vt 0.040313 0.960154
vt 0.040313 0.852415
vt 0.039331 0.925808
vt 0.040313 0.954502
vt 0.040313 0.913350
vt 0.039331 0.876085
vt 0.040313 0.762966
vt 0.040313 0.870704
vt 0.039331 0.876085
vt 0.040313 0.964056
vt 0.040313 0.820708
vt 0.040313 0.784311
vt 0.040313 0.794974
vt 0.040313 0.938809
vt 0.040313 0.928146
vt 0.040313 0.902411
vt 0.040313 0.870704
vt 0.040313 0.762966
vt 0.040313 0.759064
vt 0.040313 0.902411
vt 0.040313 0.913350
vt 0.040313 0.950154
vt 0.042136 0.847618
vt 0.042136 0.820814
vt 0.042136 0.847035
vt 0.042136 0.875502
vt 0.042136 0.902306
vt 0.042136 0.876085
vt 0.042136 0.798541
vt 0.042136 0.781106
vt 0.042136 0.782152
vt 0.042136 0.924579
vt 0.042136 0.942014
vt 0.042136 0.940968
vt 0.042136 0.797312
vt 0.042136 0.925808
vt 0.042136 0.847618
vt 0.042136 0.820814
vt 0.042136 0.821099
vt 0.042136 0.902020
vt 0.042136 0.773535
vt 0.042136 0.772129
vt 0.042136 0.949585
vt 0.042136 0.950990
vt 0.041155 0.768618
vt 0.041155 0.794974
vt 0.042136 0.847035
vt 0.041155 0.809770
vt 0.041155 0.960154
vt 0.041155 0.852415
vt 0.042136 0.797312
vt 0.041155 0.954502
vt 0.041155 0.928146
vt 0.041155 0.913350
vt 0.041155 0.762966
vt 0.041155 0.762966
vt 0.041155 0.870704
vt 0.041155 0.964056
vt 0.041155 0.820708
vt 0.041155 0.839065
vt 0.041155 0.784311
vt 0.041155 0.772966
vt 0.041155 0.938809
vt 0.041155 0.902411
vt 0.041155 0.759064
vt 0.041155 0.884055
vt 0.041155 0.950154
vt 0.041155 0.852415
vt 0.041155 0.820708
vt 0.040313 0.772966
vt 0.040313 0.839065
vt 0.041155 0.809770
vt 0.041155 0.794974
vt 0.040313 0.884055
vt 0.040313 0.884055
vt 0.042136 0.821099
vt 0.041155 0.839065
vt 0.042136 0.881637
vt 0.042136 0.892831
vt 0.042136 0.900964
vt 0.042136 0.905239
vt 0.042136 0.868478
vt 0.042136 0.854642
vt 0.042136 0.841483
vt 0.042136 0.830289
vt 0.042136 0.822156
vt 0.042136 0.817880
vt 0.042136 0.841483
vt 0.042136 0.947767
vt 0.042136 0.907057
s 0
usemtl Nave
f 15/1/1 7/2/1 3/3/1
f 20/4/1 39/5/1 19/6/1
f 10/7/1 29/8/1 9/9/1
f 34/10/1 13/11/1 14/12/1
f 24/13/1 3/3/1 4/2/1
f 18/11/1 37/10/1 17/12/1
f 8/3/1 27/13/1 7/2/1
f 32/5/1 11/4/1 12/14/1
f 22/15/1 1/16/1 2/17/1
f 36/18/1 15/1/1 16/1/1
f 26/19/1 5/20/1 6/20/1
f 38/21/2 57/22/2 37/10/2
f 52/23/3 31/24/3 32/5/3
f 26/19/4 45/25/4 25/19/4
f 60/26/5 39/5/5 40/24/5
f 54/22/6 33/21/6 34/10/6
f 28/27/7 47/28/7 27/13/7
f 42/29/8 21/30/8 22/15/8
f 36/18/9 55/31/9 35/18/9
f 50/32/10 29/8/10 30/33/10
f 44/28/11 23/27/11 24/13/11
f 66/34/1 45/25/1 46/25/1
f 60/26/1 79/35/1 59/23/1
f 54/22/1 73/36/1 53/37/1
f 68/38/1 47/28/1 48/39/1
f 62/40/1 41/41/1 42/29/1
f 56/42/1 75/43/1 55/31/1
f 50/32/1 69/44/1 49/45/1
f 64/46/1 43/39/1 44/28/1
f 78/36/1 57/22/1 58/37/1
f 72/35/1 51/26/1 52/23/1
f 180/47/12 120/48/12 119/49/12
f 170/50/12 110/51/12 109/52/12
f 173/53/12 113/54/12 174/55/12
f 163/56/12 103/57/12 164/58/12
f 178/53/12 118/54/12 117/59/12
f 168/56/12 108/57/12 107/60/12
f 171/61/12 111/62/12 172/63/12
f 162/50/12 101/51/12 161/64/12
f 175/65/12 115/66/12 176/65/12
f 182/67/12 105/68/12 181/67/12
f 117/59/13 138/69/13 137/70/13
f 112/71/14 131/72/14 111/62/14
f 105/68/15 126/73/15 125/73/15
f 120/48/16 139/74/16 119/49/16
f 114/75/17 133/69/17 113/54/17
f 107/60/18 128/76/18 127/77/18
f 102/52/19 121/78/19 101/51/19
f 115/66/20 136/79/20 135/80/20
f 110/51/21 129/81/21 109/52/21
f 104/60/22 123/76/22 103/57/22
f 126/73/12 145/82/12 125/73/12
f 139/74/12 160/83/12 159/84/12
f 133/69/12 154/85/12 153/86/12
f 128/76/12 147/87/12 127/77/12
f 122/81/12 141/88/12 121/78/12
f 135/80/12 156/89/12 155/89/12
f 129/81/12 150/88/12 149/90/12
f 124/77/12 143/91/12 123/76/12
f 138/69/12 157/85/12 137/70/12
f 132/92/12 151/93/12 131/72/12
f 78/36/23 158/86/23 77/94/23
f 32/5/24 131/72/24 52/23/24
f 4/2/25 103/57/25 24/13/25
f 80/95/26 160/83/26 79/35/26
f 51/26/27 112/71/27 31/24/27
f 23/27/28 163/56/28 3/3/28
f 13/11/29 172/63/29 12/14/29
f 46/25/30 145/82/30 66/34/30
f 26/19/31 125/73/31 46/25/31
f 18/11/32 117/59/32 38/21/32
f 65/34/33 126/73/33 45/25/33
f 45/25/34 106/68/34 25/19/34
f 37/10/35 177/55/35 17/12/35
f 15/1/36 174/55/36 14/12/36
f 60/26/37 159/84/37 80/95/37
f 40/24/38 139/74/38 60/26/38
f 8/3/39 107/60/39 28/27/39
f 79/35/40 140/96/40 59/23/40
f 59/23/41 120/48/41 39/5/41
f 27/13/42 167/58/42 7/2/42
f 17/12/43 176/65/43 16/1/43
f 54/22/44 153/86/44 74/94/44
f 34/10/45 133/69/45 54/22/45
f 12/14/46 111/62/46 32/5/46
f 73/36/47 134/97/47 53/37/47
f 53/37/48 114/75/48 33/21/48
f 31/24/49 171/61/49 11/4/49
f 19/6/50 178/53/50 18/11/50
f 48/39/51 147/87/51 68/38/51
f 28/27/52 127/77/52 48/39/52
f 2/17/53 101/51/53 22/15/53
f 67/46/54 128/76/54 47/28/54
f 47/28/55 108/57/55 27/13/55
f 21/30/56 162/50/56 1/16/56
f 1/16/57 180/47/57 20/4/57
f 42/29/58 141/88/58 62/40/58
f 22/15/59 121/78/59 42/29/59
f 16/1/60 115/66/60 36/18/60
f 61/98/61 122/81/61 41/41/61
f 41/41/62 102/52/62 21/30/62
f 35/18/63 175/65/63 15/1/63
f 56/42/64 155/89/64 76/43/64
f 36/18/65 135/80/65 56/42/65
f 6/20/66 105/68/66 26/19/66
f 75/43/67 136/79/67 55/31/67
f 55/31/68 116/66/68 35/18/68
f 25/19/69 182/67/69 5/20/69
f 50/32/70 149/90/70 70/99/70
f 30/33/71 129/81/71 50/32/71
f 69/44/72 130/78/72 49/45/72
f 49/45/73 110/51/73 29/8/73
f 44/28/74 143/91/74 64/46/74
f 24/13/75 123/76/75 44/28/75
f 63/38/76 124/77/76 43/39/76
f 43/39/77 104/60/77 23/27/77
f 3/3/78 161/64/78 2/17/78
f 58/37/79 157/85/79 78/36/79
f 62/40/80 142/90/80 61/98/80
f 77/94/81 138/69/81 57/22/81
f 64/46/82 144/87/82 63/38/82
f 5/20/83 164/58/83 4/2/83
f 52/23/84 151/93/84 72/35/84
f 66/34/85 146/82/85 65/34/85
f 20/4/86 119/49/86 40/24/86
f 71/95/87 132/92/87 51/26/87
f 68/38/88 148/91/88 67/46/88
f 39/5/89 179/100/89 19/6/89
f 7/2/90 181/67/90 6/20/90
f 70/99/91 150/88/91 69/44/91
f 10/7/92 109/52/92 30/33/92
f 72/35/93 152/101/93 71/95/93
f 29/8/94 169/64/94 9/9/94
f 9/9/95 168/56/95 8/3/95
f 74/94/96 154/85/96 73/36/96
f 38/21/97 137/70/97 58/37/97
f 14/12/98 113/54/98 34/10/98
f 76/43/99 156/89/99 75/43/99
f 57/22/100 118/54/100 37/10/100
f 33/21/101 173/53/101 13/11/101
f 11/4/102 170/50/102 10/7/102
f 81/102/12 162/50/12 161/64/12
f 81/102/12 163/56/12 83/103/12
f 83/103/12 164/58/12 84/104/12
f 85/105/12 164/58/12 182/67/12
f 87/104/12 181/67/12 167/58/12
f 87/104/12 168/56/12 88/103/12
f 88/103/12 169/64/12 89/102/12
f 90/106/12 169/64/12 170/50/12
f 90/106/12 171/61/12 91/107/12
f 92/108/12 171/61/12 172/63/12
f 92/108/12 173/53/12 93/109/12
f 93/109/12 174/55/12 94/110/12
f 95/111/12 174/55/12 175/65/12
f 95/111/12 176/65/12 96/111/12
f 97/110/12 176/65/12 177/55/12
f 97/110/12 178/53/12 98/109/12
f 98/109/12 179/100/12 99/112/12
f 100/107/12 179/100/12 180/47/12
f 100/107/12 162/50/12 82/106/12
f 166/113/12 182/67/12 181/67/12
f 183/114/12 85/105/12 184/114/12
f 165/113/12 85/105/12 182/67/12
f 166/113/12 86/105/12 183/114/12
f 165/113/12 183/114/12 184/114/12
f 3/3/1 2/17/1 1/16/1
f 1/16/1 20/4/1 19/6/1
f 19/6/1 18/11/1 17/12/1
f 17/12/1 16/1/1 15/1/1
f 15/1/1 14/12/1 13/11/1
f 13/11/1 12/14/1 11/4/1
f 11/4/1 10/7/1 9/9/1
f 9/9/1 8/3/1 7/2/1
f 7/2/1 6/20/1 5/20/1
f 5/20/1 4/2/1 7/2/1
f 4/2/1 3/3/1 7/2/1
f 3/3/1 1/16/1 19/6/1
f 19/6/1 17/12/1 3/3/1
f 17/12/1 15/1/1 3/3/1
f 15/1/1 13/11/1 11/4/1
f 11/4/1 9/9/1 7/2/1
f 15/1/1 11/4/1 7/2/1
f 20/4/1 40/24/1 39/5/1
f 10/7/1 30/33/1 29/8/1
f 34/10/1 33/21/1 13/11/1
f 24/13/1 23/27/1 3/3/1
f 18/11/1 38/21/1 37/10/1
f 8/3/1 28/27/1 27/13/1
f 32/5/1 31/24/1 11/4/1
f 22/15/1 21/30/1 1/16/1
f 36/18/1 35/18/1 15/1/1
f 26/19/1 25/19/1 5/20/1
f 38/21/2 58/37/2 57/22/2
f 52/23/3 51/26/3 31/24/3
f 26/19/4 46/25/4 45/25/4
f 60/26/5 59/23/5 39/5/5
f 54/22/6 53/37/6 33/21/6
f 28/27/7 48/39/7 47/28/7
f 42/29/8 41/41/8 21/30/8
f 36/18/9 56/42/9 55/31/9
f 50/32/10 49/45/10 29/8/10
f 44/28/11 43/39/11 23/27/11
f 66/34/1 65/34/1 45/25/1
f 60/26/1 80/95/1 79/35/1
f 54/22/1 74/94/1 73/36/1
f 68/38/1 67/46/1 47/28/1
f 62/40/1 61/98/1 41/41/1
f 56/42/1 76/43/1 75/43/1
f 50/32/1 70/99/1 69/44/1
f 64/46/1 63/38/1 43/39/1
f 78/36/1 77/94/1 57/22/1
f 72/35/1 71/95/1 51/26/1
f 180/47/12 179/100/12 120/48/12
f 170/50/12 169/64/12 110/51/12
f 173/53/12 114/75/12 113/54/12
f 163/56/12 104/60/12 103/57/12
f 178/53/12 177/55/12 118/54/12
f 168/56/12 167/58/12 108/57/12
f 171/61/12 112/71/12 111/62/12
f 162/50/12 102/52/12 101/51/12
f 175/65/12 116/66/12 115/66/12
f 182/67/12 106/68/12 105/68/12
f 117/59/13 118/54/13 138/69/13
f 112/71/14 132/92/14 131/72/14
f 105/68/15 106/68/15 126/73/15
f 120/48/16 140/96/16 139/74/16
f 114/75/17 134/97/17 133/69/17
f 107/60/18 108/57/18 128/76/18
f 102/52/19 122/81/19 121/78/19
f 115/66/20 116/66/20 136/79/20
f 110/51/21 130/78/21 129/81/21
f 104/60/22 124/77/22 123/76/22
f 126/73/12 146/82/12 145/82/12
f 139/74/12 140/96/12 160/83/12
f 133/69/12 134/97/12 154/85/12
f 128/76/12 148/91/12 147/87/12
f 122/81/12 142/90/12 141/88/12
f 135/80/12 136/79/12 156/89/12
f 129/81/12 130/78/12 150/88/12
f 124/77/12 144/87/12 143/91/12
f 138/69/12 158/86/12 157/85/12
f 132/92/12 152/101/12 151/93/12
f 78/36/23 157/85/23 158/86/23
f 32/5/24 111/62/24 131/72/24
f 4/2/25 164/58/25 103/57/25
f 80/95/26 159/84/26 160/83/26
f 51/26/27 132/92/27 112/71/27
f 23/27/28 104/60/28 163/56/28
f 13/11/29 173/53/29 172/63/29
f 46/25/30 125/73/30 145/82/30
f 26/19/31 105/68/31 125/73/31
f 18/11/32 178/53/32 117/59/32
f 65/34/33 146/82/33 126/73/33
f 45/25/34 126/73/34 106/68/34
f 37/10/35 118/54/35 177/55/35
f 15/1/36 175/65/36 174/55/36
f 60/26/37 139/74/37 159/84/37
f 40/24/38 119/49/38 139/74/38
f 8/3/39 168/56/39 107/60/39
f 79/35/40 160/83/40 140/96/40
f 59/23/41 140/96/41 120/48/41
f 27/13/42 108/57/42 167/58/42
f 17/12/43 177/55/43 176/65/43
f 54/22/44 133/69/44 153/86/44
f 34/10/45 113/54/45 133/69/45
f 12/14/46 172/63/46 111/62/46
f 73/36/47 154/85/47 134/97/47
f 53/37/48 134/97/48 114/75/48
f 31/24/49 112/71/49 171/61/49
f 19/6/50 179/100/50 178/53/50
f 48/39/51 127/77/51 147/87/51
f 28/27/52 107/60/52 127/77/52
f 2/17/53 161/64/53 101/51/53
f 67/46/54 148/91/54 128/76/54
f 47/28/55 128/76/55 108/57/55
f 21/30/56 102/52/56 162/50/56
f 1/16/57 162/50/57 180/47/57
f 42/29/58 121/78/58 141/88/58
f 22/15/59 101/51/59 121/78/59
f 16/1/60 176/65/60 115/66/60
f 61/98/61 142/90/61 122/81/61
f 41/41/62 122/81/62 102/52/62
f 35/18/63 116/66/63 175/65/63
f 56/42/64 135/80/64 155/89/64
f 36/18/65 115/66/65 135/80/65
f 6/20/66 181/67/66 105/68/66
f 75/43/67 156/89/67 136/79/67
f 55/31/68 136/79/68 116/66/68
f 25/19/69 106/68/69 182/67/69
f 50/32/70 129/81/70 149/90/70
f 30/33/71 109/52/71 129/81/71
f 69/44/72 150/88/72 130/78/72
f 49/45/73 130/78/73 110/51/73
f 44/28/74 123/76/74 143/91/74
f 24/13/75 103/57/75 123/76/75
f 63/38/76 144/87/76 124/77/76
f 43/39/77 124/77/77 104/60/77
f 3/3/78 163/56/78 161/64/78
f 58/37/79 137/70/79 157/85/79
f 62/40/80 141/88/80 142/90/80
f 77/94/81 158/86/81 138/69/81
f 64/46/82 143/91/82 144/87/82
f 5/20/83 182/67/83 164/58/83
f 52/23/84 131/72/84 151/93/84
f 66/34/85 145/82/85 146/82/85
f 20/4/86 180/47/86 119/49/86
f 71/95/87 152/101/87 132/92/87
f 68/38/88 147/87/88 148/91/88
f 39/5/89 120/48/89 179/100/89
f 7/2/90 167/58/90 181/67/90
f 70/99/91 149/90/91 150/88/91
f 10/7/92 170/50/92 109/52/92
f 72/35/93 151/93/93 152/101/93
f 29/8/94 110/51/94 169/64/94
f 9/9/95 169/64/95 168/56/95
f 74/94/96 153/86/96 154/85/96
f 38/21/97 117/59/97 137/70/97
f 14/12/98 174/55/98 113/54/98
f 76/43/99 155/89/99 156/89/99
f 57/22/100 138/69/100 118/54/100
f 33/21/101 114/75/101 173/53/101
f 11/4/102 171/61/102 170/50/102
f 81/102/12 82/106/12 162/50/12
f 81/102/12 161/64/12 163/56/12
f 83/103/12 163/56/12 164/58/12
f 85/105/12 84/104/12 164/58/12
f 87/104/12 86/105/12 181/67/12
f 87/104/12 167/58/12 168/56/12
f 88/103/12 168/56/12 169/64/12
f 90/106/12 89/102/12 169/64/12
f 90/106/12 170/50/12 171/61/12
f 92/108/12 91/107/12 171/61/12
f 92/108/12 172/63/12 173/53/12
f 93/109/12 173/53/12 174/55/12
f 95/111/12 94/110/12 174/55/12
f 95/111/12 175/65/12 176/65/12
f 97/110/12 96/111/12 176/65/12
f 97/110/12 177/55/12 178/53/12
f 98/109/12 178/53/12 179/100/12
f 100/107/12 99/112/12 179/100/12
f 100/107/12 180/47/12 162/50/12
f 166/113/12 165/113/12 182/67/12
f 183/114/12 86/105/12 85/105/12
f 165/113/12 184/114/12 85/105/12
f 166/113/12 181/67/12 86/105/12
f 165/113/12 166/113/12 183/114/12
