# Blender 4.1.0
# www.blender.org
mtllib DimsdaleSign.mtl
o Cube
v 25.694794 60.853004 -4.870600
v 25.694794 12.146999 -4.870600
v 25.694794 60.853004 4.870600
v 25.694794 12.146999 4.870600
v -25.694794 60.853004 -4.870600
v -25.694794 12.146999 -4.870600
v -25.694794 60.853004 4.870600
v -25.694794 12.146999 4.870600
v -1.000000 -0.108750 3.000000
v 7.000000 14.108748 -2.000000
v -1.000000 -0.108750 1.000000
v 7.000000 14.108748 -4.000000
v 1.000000 -0.108750 3.000000
v 9.000000 14.108748 -2.000000
v 1.000000 -0.108750 1.000000
v 9.000000 14.108748 -4.000000
v 11.000000 -0.108750 3.000000
v 19.000000 14.108748 -2.000000
v 11.000000 -0.108750 1.000000
v 19.000000 14.108748 -4.000000
v 13.000001 -0.108750 3.000000
v 21.000002 14.108748 -2.000000
v 13.000001 -0.108750 1.000000
v 21.000002 14.108748 -4.000000
v -13.000001 -0.108750 3.000000
v -5.000000 14.108748 -2.000000
v -13.000001 -0.108750 1.000000
v -5.000000 14.108748 -4.000000
v -11.000000 -0.108750 3.000000
v -3.000000 14.108748 -2.000000
v -11.000000 -0.108750 1.000000
v -3.000000 14.108748 -4.000000
v -25.000000 -0.108750 3.000000
v -17.000000 14.108748 -2.000000
v -25.000000 -0.108750 1.000000
v -17.000000 14.108748 -4.000000
v -23.000002 -0.108750 3.000000
v -15.000000 14.108748 -2.000000
v -23.000002 -0.108750 1.000000
v -15.000000 14.108748 -4.000000
v -11.000000 -0.108750 -3.000000
v -19.000000 14.108748 2.000000
v -11.000000 -0.108750 -1.000001
v -19.000000 14.108748 4.000000
v -12.999998 -0.108750 -3.000000
v -21.000000 14.108748 2.000000
v -12.999998 -0.108750 -1.000000
v -21.000000 14.108748 4.000000
v 1.000000 -0.108750 -3.000000
v -6.999999 14.108748 2.000000
v 1.000000 -0.108750 -1.000001
v -6.999999 14.108748 4.000000
v -0.999998 -0.108750 -3.000000
v -8.999998 14.108748 2.000000
v -0.999998 -0.108750 -1.000000
v -8.999998 14.108748 4.000000
v 13.000001 -0.108750 -3.000000
v 5.000001 14.108748 2.000000
v 13.000001 -0.108750 -1.000001
v 5.000001 14.108748 4.000000
v 11.000003 -0.108750 -3.000000
v 3.000002 14.108748 2.000000
v 11.000003 -0.108750 -1.000000
v 3.000002 14.108748 4.000000
v 25.000000 -0.108750 -3.000000
v 17.000002 14.108748 2.000000
v 25.000000 -0.108750 -1.000001
v 17.000002 14.108748 4.000000
v 23.000002 -0.108750 -3.000000
v 15.000002 14.108748 2.000000
v 23.000002 -0.108750 -1.000000
v 15.000002 14.108748 4.000000
vn -0.0000 1.0000 -0.0000
vn -0.0000 -0.0000 1.0000
vn -1.0000 -0.0000 -0.0000
vn -0.0000 -1.0000 -0.0000
vn 1.0000 -0.0000 -0.0000
vn -0.0000 -0.0000 -1.0000
vn -0.8715 0.4904 -0.0000
vn -0.0000 -0.3318 -0.9434
vn 0.8715 -0.4904 -0.0000
vn -0.0000 0.3318 0.9434
vn 0.8715 0.4904 -0.0000
vn -0.0000 -0.3318 0.9434
vn -0.8715 -0.4904 -0.0000
vn -0.0000 0.3318 -0.9434
vt 0.272552 0.089977
vt 0.018474 0.089977
vt 0.018474 0.041815
vt 0.272552 0.041815
vt 0.957635 0.038955
vt 0.956860 0.412728
vt 0.419576 0.412728
vt 0.420352 0.038955
vt 0.337478 0.058858
vt 0.337478 0.347830
vt 0.420041 0.347830
vt 0.420041 0.058858
vt 0.468513 0.840291
vt 0.722591 0.840291
vt 0.722591 0.888453
vt 0.468513 0.888453
vt 0.258815 0.094552
vt 0.258815 0.275927
vt 0.067447 0.275927
vt 0.067447 0.094552
vt 0.155768 0.644999
vt 0.248090 0.907516
vt 0.285018 0.907516
vt 0.192696 0.644999
vt 0.266554 0.644999
vt 0.174232 0.907516
vt 0.137303 0.907516
vt 0.229625 0.644999
s 0
usemtl Sign
f 1/1/1 5/2/1 7/3/1 3/4/1
f 4/5/2 3/6/2 7/7/2 8/8/2
f 8/9/3 7/10/3 5/11/3 6/12/3
f 6/13/4 2/14/4 4/15/4 8/16/4
f 2/12/5 1/11/5 3/10/5 4/9/5
f 6/17/6 5/18/6 1/19/6 2/20/6
f 9/21/7 10/22/7 12/23/7 11/24/7
f 11/24/8 12/23/8 16/23/8 15/24/8
f 15/24/9 16/23/9 14/22/9 13/21/9
f 13/21/10 14/22/10 10/22/10 9/21/10
f 11/24/4 15/24/4 13/21/4 9/21/4
f 16/23/1 12/23/1 10/22/1 14/22/1
f 17/21/7 18/22/7 20/23/7 19/24/7
f 19/24/8 20/23/8 24/23/8 23/24/8
f 23/24/9 24/23/9 22/22/9 21/21/9
f 21/21/10 22/22/10 18/22/10 17/21/10
f 19/24/4 23/24/4 21/21/4 17/21/4
f 24/23/1 20/23/1 18/22/1 22/22/1
f 25/21/7 26/22/7 28/23/7 27/24/7
f 27/24/8 28/23/8 32/23/8 31/24/8
f 31/24/9 32/23/9 30/22/9 29/21/9
f 29/21/10 30/22/10 26/22/10 25/21/10
f 27/24/4 31/24/4 29/21/4 25/21/4
f 32/23/1 28/23/1 26/22/1 30/22/1
f 33/21/7 34/22/7 36/23/7 35/24/7
f 35/24/8 36/23/8 40/23/8 39/24/8
f 39/24/9 40/23/9 38/22/9 37/21/9
f 37/21/10 38/22/10 34/22/10 33/21/10
f 35/24/4 39/24/4 37/21/4 33/21/4
f 40/23/1 36/23/1 34/22/1 38/22/1
f 41/25/11 42/26/11 44/27/11 43/28/11
f 43/28/12 44/27/12 48/27/12 47/28/12
f 47/28/13 48/27/13 46/26/13 45/25/13
f 45/25/14 46/26/14 42/26/14 41/25/14
f 43/28/4 47/28/4 45/25/4 41/25/4
f 48/27/1 44/27/1 42/26/1 46/26/1
f 49/25/11 50/26/11 52/27/11 51/28/11
f 51/28/12 52/27/12 56/27/12 55/28/12
f 55/28/13 56/27/13 54/26/13 53/25/13
f 53/25/14 54/26/14 50/26/14 49/25/14
f 51/28/4 55/28/4 53/25/4 49/25/4
f 56/27/1 52/27/1 50/26/1 54/26/1
f 57/25/11 58/26/11 60/27/11 59/28/11
f 59/28/12 60/27/12 64/27/12 63/28/12
f 63/28/13 64/27/13 62/26/13 61/25/13
f 61/25/14 62/26/14 58/26/14 57/25/14
f 59/28/4 63/28/4 61/25/4 57/25/4
f 64/27/1 60/27/1 58/26/1 62/26/1
f 65/25/11 66/26/11 68/27/11 67/28/11
f 67/28/12 68/27/12 72/27/12 71/28/12
f 71/28/13 72/27/13 70/26/13 69/25/13
f 69/25/14 70/26/14 66/26/14 65/25/14
f 67/28/4 71/28/4 69/25/4 65/25/4
f 72/27/1 68/27/1 66/26/1 70/26/1
