# Blender 4.0.2
# www.blender.org
mtllib DimsdaleSignBaked.mtl
o Cube
v 25.694794 60.853004 -4.870605
v 25.694794 12.146999 -4.870601
v 25.694794 60.853004 4.870595
v 25.694794 12.146999 4.870599
v -25.694794 60.853004 -4.870605
v -25.694794 12.146999 -4.870601
v -25.694794 60.853004 4.870595
v -25.694794 12.146999 4.870599
v -1.000000 -0.108750 3.000000
v 7.000000 14.108748 -2.000001
v -1.000000 -0.108750 1.000000
v 7.000000 14.108748 -4.000001
v 1.000000 -0.108750 3.000000
v 9.000000 14.108748 -2.000001
v 1.000000 -0.108750 1.000000
v 9.000000 14.108748 -4.000001
v 11.000000 -0.108750 3.000000
v 19.000000 14.108748 -2.000001
v 11.000000 -0.108750 1.000000
v 19.000000 14.108748 -4.000001
v 13.000001 -0.108750 3.000000
v 21.000002 14.108748 -2.000001
v 13.000001 -0.108750 1.000000
v 21.000002 14.108748 -4.000001
v -13.000001 -0.108750 3.000000
v -5.000000 14.108748 -2.000001
v -13.000001 -0.108750 1.000000
v -5.000000 14.108748 -4.000001
v -11.000000 -0.108750 3.000000
v -3.000000 14.108748 -2.000001
v -11.000000 -0.108750 1.000000
v -3.000000 14.108748 -4.000001
v -25.000000 -0.108750 3.000000
v -17.000000 14.108748 -2.000001
v -25.000000 -0.108750 1.000000
v -17.000000 14.108748 -4.000001
v -23.000002 -0.108750 3.000000
v -15.000000 14.108748 -2.000001
v -23.000002 -0.108750 1.000000
v -15.000000 14.108748 -4.000001
v -11.000000 -0.108750 -3.000000
v -19.000000 14.108748 1.999999
v -11.000000 -0.108750 -1.000001
v -19.000000 14.108748 3.999999
v -12.999998 -0.108750 -3.000000
v -21.000000 14.108748 1.999999
v -12.999998 -0.108750 -1.000000
v -21.000000 14.108748 3.999999
v 1.000000 -0.108750 -3.000000
v -6.999999 14.108748 1.999999
v 1.000000 -0.108750 -1.000001
v -6.999999 14.108748 3.999999
v -0.999998 -0.108750 -3.000000
v -8.999998 14.108748 1.999999
v -0.999998 -0.108750 -1.000000
v -8.999998 14.108748 3.999999
v 13.000001 -0.108750 -3.000000
v 5.000001 14.108748 1.999999
v 13.000001 -0.108750 -1.000001
v 5.000001 14.108748 3.999999
v 11.000003 -0.108750 -3.000000
v 3.000002 14.108748 1.999999
v 11.000003 -0.108750 -1.000000
v 3.000002 14.108748 3.999999
v 25.000000 -0.108750 -3.000000
v 17.000002 14.108748 1.999999
v 25.000000 -0.108750 -1.000001
v 17.000002 14.108748 3.999999
v 23.000002 -0.108750 -3.000000
v 15.000002 14.108748 1.999999
v 23.000002 -0.108750 -1.000000
v 15.000002 14.108748 3.999999
vn -0.0000 1.0000 -0.0000
vn -0.0000 -0.0000 1.0000
vn -1.0000 -0.0000 -0.0000
vn -0.0000 -1.0000 -0.0000
vn 1.0000 -0.0000 -0.0000
vn -0.0000 -0.0000 -1.0000
vn -0.8715 0.4904 -0.0000
vn -0.0000 -0.3318 -0.9434
vn 0.8715 -0.4904 -0.0000
vn -0.0000 0.3318 0.9434
vn 0.8715 0.4904 -0.0000
vn -0.0000 -0.3318 0.9434
vn -0.8715 -0.4904 -0.0000
vn -0.0000 0.3318 -0.9434
vt 0.414776 0.341425
vt 0.339420 0.341425
vt 0.342923 0.279859
vt 0.414341 0.229711
vt 0.342923 0.229711
vt 0.414776 0.058081
vt 0.339420 0.058081
vt 0.950381 0.415360
vt 0.423933 0.040744
vt 0.950381 0.040744
vt 0.275645 0.646071
vt 0.304513 0.594767
vt 0.297296 0.594767
vt 0.268428 0.646071
vt 0.502207 0.562087
vt 0.494990 0.562087
vt 0.232342 0.646071
vt 0.261210 0.594767
vt 0.253993 0.594767
vt 0.225125 0.646071
vt 0.458904 0.562087
vt 0.451687 0.562087
vt 0.318947 0.646071
vt 0.347816 0.594767
vt 0.340599 0.594767
vt 0.311730 0.646071
vt 0.545510 0.562087
vt 0.538293 0.562087
vt 0.362250 0.646071
vt 0.391118 0.594767
vt 0.383901 0.594767
vt 0.355033 0.646071
vt 0.588812 0.562087
vt 0.581595 0.562087
vt 0.369467 0.646071
vt 0.376684 0.646071
vt 0.596029 0.562087
vt 0.603247 0.562087
vt 0.552727 0.562087
vt 0.523858 0.510782
vt 0.326164 0.646071
vt 0.333382 0.646071
vt 0.559944 0.562087
vt 0.509424 0.562087
vt 0.480556 0.510782
vt 0.282862 0.646071
vt 0.290079 0.646071
vt 0.516641 0.562087
vt 0.466122 0.562087
vt 0.437253 0.510782
vt 0.239559 0.646071
vt 0.217908 0.594767
vt 0.210691 0.594767
vt 0.246776 0.646071
vt 0.473339 0.562087
vt 0.414341 0.279859
vt 0.423933 0.415360
s 0
usemtl Sign
f 5/1/1 3/2/1 1/2/1
f 3/3/2 8/4/2 4/5/2
f 7/1/3 6/6/3 8/6/3
f 2/7/4 8/6/4 6/6/4
f 1/2/5 4/7/5 2/7/5
f 5/8/6 2/9/6 6/10/6
f 10/11/7 11/12/7 9/12/7
f 12/11/8 15/13/8 11/12/8
f 15/13/9 14/14/9 13/13/9
f 13/13/10 10/11/10 9/12/10
f 15/13/4 9/12/4 11/12/4
f 12/15/1 14/16/1 16/16/1
f 18/17/7 19/18/7 17/18/7
f 20/17/8 23/19/8 19/18/8
f 23/19/9 22/20/9 21/19/9
f 21/19/10 18/17/10 17/18/10
f 23/19/4 17/18/4 19/18/4
f 20/21/1 22/22/1 24/22/1
f 26/23/7 27/24/7 25/24/7
f 28/23/8 31/25/8 27/24/8
f 31/25/9 30/26/9 29/25/9
f 29/25/10 26/23/10 25/24/10
f 31/25/4 25/24/4 27/24/4
f 28/27/1 30/28/1 32/28/1
f 34/29/7 35/30/7 33/30/7
f 36/29/8 39/31/8 35/30/8
f 39/31/9 38/32/9 37/31/9
f 37/31/10 34/29/10 33/30/10
f 39/31/4 33/30/4 35/30/4
f 36/33/1 38/34/1 40/34/1
f 42/35/11 43/25/11 41/25/11
f 44/35/12 47/24/12 43/25/12
f 47/24/13 46/36/13 45/24/13
f 45/24/14 42/35/14 41/25/14
f 43/25/4 45/24/4 41/25/4
f 44/37/1 46/38/1 48/38/1
f 50/39/11 51/40/11 49/40/11
f 52/41/12 55/12/12 51/13/12
f 55/12/13 54/42/13 53/12/13
f 53/12/14 50/41/14 49/13/14
f 55/12/4 49/13/4 51/13/4
f 52/39/1 54/43/1 56/43/1
f 58/44/11 59/45/11 57/45/11
f 60/46/12 63/18/12 59/19/12
f 63/18/13 62/47/13 61/18/13
f 61/18/14 58/46/14 57/19/14
f 59/19/4 61/18/4 57/19/4
f 60/44/1 62/48/1 64/48/1
f 66/49/11 67/50/11 65/50/11
f 68/51/12 71/52/12 67/53/12
f 71/52/13 70/54/13 69/52/13
f 69/52/14 66/51/14 65/53/14
f 67/53/4 69/52/4 65/53/4
f 68/49/1 70/55/1 72/55/1
f 5/1/1 7/1/1 3/2/1
f 3/3/2 7/56/2 8/4/2
f 7/1/3 5/1/3 6/6/3
f 2/7/4 4/7/4 8/6/4
f 1/2/5 3/2/5 4/7/5
f 5/8/6 1/57/6 2/9/6
f 10/11/7 12/11/7 11/12/7
f 12/11/8 16/14/8 15/13/8
f 15/13/9 16/14/9 14/14/9
f 13/13/10 14/14/10 10/11/10
f 15/13/4 13/13/4 9/12/4
f 12/15/1 10/15/1 14/16/1
f 18/17/7 20/17/7 19/18/7
f 20/17/8 24/20/8 23/19/8
f 23/19/9 24/20/9 22/20/9
f 21/19/10 22/20/10 18/17/10
f 23/19/4 21/19/4 17/18/4
f 20/21/1 18/21/1 22/22/1
f 26/23/7 28/23/7 27/24/7
f 28/23/8 32/26/8 31/25/8
f 31/25/9 32/26/9 30/26/9
f 29/25/10 30/26/10 26/23/10
f 31/25/4 29/25/4 25/24/4
f 28/27/1 26/27/1 30/28/1
f 34/29/7 36/29/7 35/30/7
f 36/29/8 40/32/8 39/31/8
f 39/31/9 40/32/9 38/32/9
f 37/31/10 38/32/10 34/29/10
f 39/31/4 37/31/4 33/30/4
f 36/33/1 34/33/1 38/34/1
f 42/35/11 44/35/11 43/25/11
f 44/35/12 48/36/12 47/24/12
f 47/24/13 48/36/13 46/36/13
f 45/24/14 46/36/14 42/35/14
f 43/25/4 47/24/4 45/24/4
f 44/37/1 42/37/1 46/38/1
f 50/39/11 52/39/11 51/40/11
f 52/41/12 56/42/12 55/12/12
f 55/12/13 56/42/13 54/42/13
f 53/12/14 54/42/14 50/41/14
f 55/12/4 53/12/4 49/13/4
f 52/39/1 50/39/1 54/43/1
f 58/44/11 60/44/11 59/45/11
f 60/46/12 64/47/12 63/18/12
f 63/18/13 64/47/13 62/47/13
f 61/18/14 62/47/14 58/46/14
f 59/19/4 63/18/4 61/18/4
f 60/44/1 58/44/1 62/48/1
f 66/49/11 68/49/11 67/50/11
f 68/51/12 72/54/12 71/52/12
f 71/52/13 72/54/13 70/54/13
f 69/52/14 70/54/14 66/51/14
f 67/53/4 71/52/4 69/52/4
f 68/49/1 66/49/1 70/55/1
